<svg width="114" height="114" viewBox="0 0 114 114" fill="none" xmlns="http://www.w3.org/2000/svg">
<path d="M110.539 54.6539H107.28C106.084 28.7579 85.2423 7.91653 59.3462 6.72039V3.46163C59.3462 2.83939 59.0991 2.24264 58.6591 1.80265C58.2191 1.36266 57.6223 1.11548 57.0001 1.11548C56.3779 1.11548 55.7811 1.36266 55.3411 1.80265C54.9011 2.24264 54.6539 2.8394 54.6539 3.46163V6.72039C28.7579 7.91653 7.91653 28.7579 6.72039 54.6539H3.46163C2.8394 54.6539 2.24264 54.9011 1.80265 55.3411C1.36266 55.7811 1.11548 56.3779 1.11548 57.0001C1.11548 57.6223 1.36266 58.2191 1.80265 58.6591C2.24264 59.0991 2.83939 59.3462 3.46163 59.3462H6.72039C7.91653 85.2423 28.7579 106.084 54.6539 107.28V110.539C54.6539 111.161 54.9011 111.758 55.3411 112.198C55.7811 112.638 56.3779 112.885 57.0001 112.885C57.6223 112.885 58.2191 112.638 58.6591 112.198C59.0991 111.758 59.3462 111.161 59.3462 110.539V107.28C85.2423 106.084 106.084 85.2423 107.28 59.3462H110.539C111.161 59.3462 111.758 59.0991 112.198 58.6591C112.638 58.2191 112.885 57.6223 112.885 57.0001C112.885 56.3779 112.638 55.7811 112.198 55.3411C111.758 54.9011 111.161 54.6539 110.539 54.6539ZM102.585 59.3462C101.397 82.6531 82.6531 101.397 59.3462 102.585V99.4616C59.3462 98.8394 59.0991 98.2426 58.6591 97.8027C58.2191 97.3627 57.6223 97.1155 57.0001 97.1155C56.3779 97.1155 55.7811 97.3627 55.3411 97.8027C54.9011 98.2426 54.6539 98.8394 54.6539 99.4616V102.585C31.3471 101.397 12.6036 82.6531 11.4156 59.3462H14.5386C15.1608 59.3462 15.7575 59.0991 16.1975 58.6591C16.6375 58.2191 16.8847 57.6223 16.8847 57.0001C16.8847 56.3779 16.6375 55.7811 16.1975 55.3411C15.7575 54.9011 15.1608 54.6539 14.5386 54.6539H11.4156C12.6036 31.3471 31.3471 12.6036 54.6539 11.4156V14.5386C54.6539 15.1608 54.9011 15.7575 55.3411 16.1975C55.7811 16.6375 56.3779 16.8847 57.0001 16.8847C57.6223 16.8847 58.2191 16.6375 58.6591 16.1975C59.0991 15.7575 59.3462 15.1608 59.3462 14.5386V11.4156C82.6531 12.6036 101.397 31.3471 102.585 54.6539H99.4616C98.8394 54.6539 98.2426 54.9011 97.8027 55.3411C97.3627 55.7811 97.1155 56.3779 97.1155 57.0001C97.1155 57.6223 97.3627 58.2191 97.8027 58.6591C98.2426 59.0991 98.8394 59.3462 99.4616 59.3462H102.585Z" fill="#1F1E4F" stroke="#1F1E4F"/>
<path d="M79.1539 54.6538H70.2006C69.7176 51.9558 68.4197 49.4663 66.4767 47.5233C64.5337 45.5803 62.0442 44.2824 59.3462 43.7994V34.8462C59.3462 34.2239 59.099 33.6272 58.659 33.1872C58.219 32.7472 57.6222 32.5 57 32.5C56.3778 32.5 55.781 32.7472 55.341 33.1872C54.901 33.6272 54.6538 34.2239 54.6538 34.8462V43.7994C51.956 44.2827 49.4666 45.5807 47.5236 47.5236C45.5807 49.4666 44.2827 51.956 43.7994 54.6538H34.8462C34.2239 54.6538 33.6272 54.901 33.1872 55.341C32.7472 55.781 32.5 56.3778 32.5 57C32.5 57.6222 32.7472 58.219 33.1872 58.659C33.6272 59.099 34.2239 59.3462 34.8462 59.3462H43.7994C44.2824 62.0442 45.5803 64.5337 47.5233 66.4767C49.4663 68.4197 51.9558 69.7176 54.6538 70.2006V79.1539C54.6538 79.7761 54.901 80.3728 55.341 80.8128C55.781 81.2528 56.3778 81.5 57 81.5C57.6222 81.5 58.219 81.2528 58.659 80.8128C59.099 80.3728 59.3462 79.7761 59.3462 79.1539V70.2006C62.044 69.7173 64.5334 68.4193 66.4764 66.4764C68.4193 64.5334 69.7173 62.044 70.2006 59.3462H79.1539C79.7761 59.3462 80.3728 59.099 80.8128 58.659C81.2528 58.219 81.5 57.6222 81.5 57C81.5 56.3778 81.2528 55.781 80.8128 55.341C80.3728 54.901 79.7761 54.6538 79.1539 54.6538ZM57 65.7308C52.1863 65.7308 48.2692 61.8137 48.2692 57C48.2692 52.1863 52.1863 48.2692 57 48.2692C61.8137 48.2692 65.7308 52.1863 65.7308 57C65.7308 61.8137 61.8137 65.7308 57 65.7308Z" fill="#1F1E4F" stroke="#1F1E4F"/>
</svg>
