<svg width="120" height="110" viewBox="0 0 120 110" fill="none" xmlns="http://www.w3.org/2000/svg">
<path d="M2.8125 109.375H117.188C117.933 109.375 118.649 109.079 119.176 108.551C119.704 108.024 120 107.308 120 106.562C120 105.817 119.704 105.101 119.176 104.574C118.649 104.046 117.933 103.75 117.188 103.75H103.096V41.6406C103.096 40.8947 102.799 40.1793 102.272 39.6519C101.744 39.1244 101.029 38.8281 100.283 38.8281H83.291C82.5451 38.8281 81.8297 39.1244 81.3023 39.6519C80.7748 40.1793 80.4785 40.8947 80.4785 41.6406V103.75H71.3086V55.3516C71.3086 54.6056 71.0123 53.8903 70.4848 53.3628C69.9574 52.8354 69.242 52.5391 68.4961 52.5391H51.5039C50.758 52.5391 50.0426 52.8354 49.5152 53.3628C48.9877 53.8903 48.6914 54.6056 48.6914 55.3516V103.75H39.5215V69.0625C39.5215 68.3166 39.2252 67.6012 38.6977 67.0738C38.1703 66.5463 37.4549 66.25 36.709 66.25H19.7168C18.9709 66.25 18.2555 66.5463 17.7281 67.0738C17.2006 67.6012 16.9043 68.3166 16.9043 69.0625V103.75H2.8125C2.06658 103.75 1.35121 104.046 0.823762 104.574C0.296316 105.101 0 105.817 0 106.562C0 107.308 0.296316 108.024 0.823762 108.551C1.35121 109.079 2.06658 109.375 2.8125 109.375ZM86.1035 44.4531H97.4707V103.75H86.1035V44.4531ZM54.3164 58.1641H65.6836V103.75H54.3164V58.1641ZM22.5293 71.875H33.8965V103.75H22.5293V71.875ZM16.7651 60.9836C16.6564 60.6305 16.6184 60.2595 16.6531 59.8918C16.6878 59.524 16.7947 59.1667 16.9675 58.8402C17.1404 58.5137 17.3759 58.2245 17.6605 57.9891C17.9452 57.7536 18.2734 57.5765 18.6265 57.468C48.4644 48.3462 74.8924 30.5093 94.5136 6.25H83.1738C82.4279 6.25 81.7125 5.95368 81.1851 5.42624C80.6576 4.89879 80.3613 4.18342 80.3613 3.4375C80.3613 2.69158 80.6576 1.97621 81.1851 1.44876C81.7125 0.921316 82.4279 0.625 83.1738 0.625H100.283C101.029 0.625 101.744 0.921316 102.272 1.44876C102.799 1.97621 103.096 2.69158 103.096 3.4375V20.5469C103.096 21.2928 102.799 22.0082 102.272 22.5356C101.744 23.0631 101.029 23.3594 100.283 23.3594C99.5373 23.3594 98.8219 23.0631 98.2945 22.5356C97.767 22.0082 97.4707 21.2928 97.4707 20.5469V11.5077C88.1111 22.7281 77.2826 32.6365 65.2774 40.9656C51.4959 50.5346 36.3175 57.9149 20.2802 62.8448C19.9272 62.9538 19.5561 62.9921 19.1882 62.9575C18.8204 62.9229 18.4629 62.8161 18.1364 62.6432C17.8098 62.4703 17.5206 62.2347 17.2852 61.9499C17.0498 61.6651 16.8729 61.3366 16.7646 60.9834L16.7651 60.9836Z" fill="#1F1E4F"/>
</svg>
