<svg width="116" height="118" viewBox="0 0 116 118" fill="none" xmlns="http://www.w3.org/2000/svg">
<path d="M114.723 42.559L90.2963 13.6734C89.6281 12.8819 88.4445 12.7841 87.6552 13.4517L77.7943 21.7742C77.4143 22.0944 77.1781 22.5532 77.1364 23.0497C77.0947 23.5461 77.2508 24.0381 77.5733 24.4176L78.4011 25.3969C76.5468 26.6629 74.5644 27.8492 72.4345 28.648C70.1413 29.5075 66.8547 29.9466 63.3758 30.4105C57.0861 31.2514 50.5826 32.118 47.0455 35.7155L45.0757 37.7185C40.4563 35.9548 36.9111 37.3755 33.1783 38.8755C30.7642 39.8451 28.2694 40.8484 25.085 41.2164C24.4553 41.2866 23.8228 41.3281 23.1894 41.3409L23.6339 38.8706C23.7212 38.3814 23.6126 37.8766 23.3283 37.4675C23.044 37.0584 22.6101 36.7792 22.1185 36.6925L9.41071 34.4173C8.92155 34.3295 8.41755 34.4395 8.00944 34.7231C7.60134 35.0067 7.32252 35.4407 7.23426 35.9298L0.529967 73.1569C0.442686 73.6462 0.551237 74.1509 0.835558 74.56C1.11988 74.9691 1.55381 75.2483 2.04307 75.3356L14.7441 77.6127C15.2332 77.7004 15.7372 77.5904 16.1453 77.3068C16.5534 77.0232 16.8322 76.5892 16.9205 76.1002L17.2586 74.2286L20.8191 75.5724C21.9375 76.3233 22.9268 77.9145 23.9745 79.5967C24.955 81.1732 25.9641 82.793 27.2779 84.074L26.7283 86.0799C26.2588 87.778 26.4844 89.5617 27.3609 91.103C28.2402 92.6459 29.6602 93.7528 31.3616 94.2165C32.504 94.5316 33.686 94.5328 34.8066 94.2325C35.3522 94.0863 35.8835 93.8687 36.3886 93.5805C36.4202 93.5624 36.4494 93.5448 36.4787 93.5273C36.4962 93.5565 36.5099 93.5893 36.5274 93.6185C37.4055 95.157 38.8249 96.2616 40.5212 96.7243C41.6524 97.0354 42.8462 97.0388 43.9792 96.7343C44.5655 96.5772 45.1232 96.3404 45.6428 96.0338L45.6862 96.1144C46.5655 97.6573 47.9856 98.7642 49.687 99.2279C50.8316 99.5424 52.0136 99.5436 53.1365 99.2427C53.6821 99.0965 54.2111 98.8795 54.7146 98.5942C55.4996 98.146 56.1719 97.5583 56.7037 96.8625C57.5246 97.7121 58.5596 98.3242 59.6995 98.6343C60.8675 98.9546 62.0504 98.9409 63.1461 98.6473C64.6222 98.2518 65.9379 97.3485 66.84 96.0877L72.8955 97.7869C74.1269 98.1356 75.4297 98.1446 76.6658 97.8127C77.2431 97.658 77.8055 97.4297 78.3433 97.1279C80.0177 96.1866 81.224 94.6575 81.735 92.8245C82.0814 91.5993 82.0913 90.3033 81.7634 89.0729C82.4864 89.1 83.198 89.0209 83.8772 88.8389C86.243 88.205 88.2276 86.3751 88.9373 83.8531C89.4031 82.2046 89.2568 80.4724 88.5354 78.9211C90.7217 78.197 92.5256 76.435 93.1962 74.0569C93.691 72.3083 93.4963 70.4679 92.6582 68.8435C92.961 68.7236 93.2588 68.5855 93.5477 68.4232C95.2205 67.4848 96.4261 65.9534 96.9433 64.1164C97.46 62.2867 97.2268 60.3571 96.2879 58.6821C96.0792 58.3109 95.8403 57.9624 95.5767 57.64C97.9969 56.1859 99.9525 54.5555 101.49 52.724L101.988 53.3137C102.472 53.8877 103.226 54.0956 103.905 53.9136C104.164 53.8445 104.412 53.7198 104.629 53.5353L114.497 45.211C114.685 45.0522 114.841 44.8577 114.954 44.6387C115.067 44.4198 115.136 44.1806 115.157 43.9349C115.202 43.4328 115.043 42.9391 114.723 42.559ZM13.5644 73.5903L4.55398 71.9743L10.5943 38.4362L19.6115 40.0503L13.5644 73.5903ZM32.3548 90.5971C31.6192 90.3963 31.0056 89.9177 30.6242 89.2458C30.244 88.5785 30.1463 87.8064 30.3477 87.0731L32.8514 77.9437C33.2737 76.4135 34.8634 75.5095 36.393 75.9295C37.1235 76.1293 37.737 76.6079 38.1195 77.2746C38.5032 77.9458 38.6009 78.7179 38.4017 79.4507L35.8902 88.587C35.6887 89.3204 35.2079 89.9345 34.5366 90.3182C33.8654 90.7019 33.091 90.8002 32.3548 90.5971ZM41.5138 93.1026C40.7833 92.9028 40.1697 92.4242 39.7873 91.7575C39.4036 91.0863 39.3059 90.3142 39.5051 89.5814L42.0166 80.445L42.016 80.4428C42.2174 79.7094 42.6983 79.0953 43.3695 78.7116C43.5909 78.5868 43.8224 78.4908 44.0601 78.4271C44.5445 78.2973 45.0562 78.2961 45.5491 78.4333C46.2796 78.6331 46.8932 79.1117 47.2756 79.7784C47.6593 80.4496 47.757 81.2217 47.5578 81.9545L47.0676 83.7382L45.0541 91.0839C45.0541 91.0839 45.0547 91.0862 45.0525 91.0868C44.6337 92.6209 43.0462 93.5242 41.5138 93.1026ZM52.8597 95.3302C52.1902 95.711 51.4158 95.8093 50.6773 95.6069C49.9417 95.406 49.3281 94.9274 48.9467 94.2556C48.5665 93.5883 48.4688 92.8162 48.6702 92.0828L51.1733 82.9511C51.5945 81.4261 53.182 80.5227 54.7081 80.9388C55.4415 81.1402 56.0573 81.6182 56.441 82.2895C56.8218 82.959 56.924 83.7299 56.7236 84.4582L54.2121 93.5945C54.1127 93.9589 53.9421 94.3 53.7099 94.598C53.4778 94.8959 53.1888 95.1448 52.8597 95.3302ZM60.6921 95.0126C59.9542 94.8123 59.3366 94.3276 58.9545 93.6535C58.5772 92.9878 58.4813 92.2225 58.6846 91.4959L60.3576 85.4693C60.7849 83.9401 62.3712 83.0322 63.887 83.4462C64.6284 83.6504 65.2483 84.1345 65.6309 84.8109C66.0082 85.4765 66.1047 86.2441 65.9015 86.9707L64.2279 92.9951C63.8011 94.5265 62.2165 95.4315 60.6921 95.0126ZM93.3381 63.0951C93.0919 63.9691 92.5157 64.6985 91.7166 65.148C90.9174 65.5975 89.996 65.7085 89.1197 65.4629L79.3857 62.7403C78.389 62.4614 77.3538 63.0445 77.075 64.0413C76.7961 65.038 77.3792 66.0731 78.376 66.352C78.376 66.352 87.2035 68.825 87.2247 68.8314C88.0958 69.076 88.823 69.6528 89.2737 70.4565C89.7232 71.2557 89.8352 72.1719 89.5917 73.0379C89.0787 74.8545 87.1892 75.9164 85.3733 75.4057L75.6918 72.6981C74.6951 72.4192 73.6599 73.0023 73.3811 73.9991C73.1022 74.9959 73.6853 76.031 74.6821 76.3099C74.6821 76.3099 82.9481 78.6251 82.9664 78.6299C83.8375 78.8745 84.5647 79.4513 85.0148 80.2527C85.4643 81.0519 85.5763 81.9682 85.3328 82.8342C84.8221 84.6501 82.9281 85.7132 81.115 85.2042L72.8021 82.8772C71.8054 82.5984 70.7702 83.1815 70.4914 84.1782C70.2125 85.175 70.7933 86.2107 71.7924 86.489L75.7954 87.6099C76.6507 87.8587 77.367 88.4311 77.813 89.2264C78.2609 90.0284 78.3752 90.9441 78.1294 91.8107C77.8848 92.6818 77.3109 93.4106 76.5095 93.8607C75.708 94.3108 74.7872 94.4241 73.9132 94.1778L68.2382 92.5854L69.5167 87.9844C69.9874 86.2908 69.7675 84.5105 68.8962 82.9702C68.0174 81.4199 66.5939 80.309 64.8803 79.8364C63.0847 79.347 61.2501 79.6542 59.7579 80.5417C59.7391 80.5079 59.7226 80.4735 59.7039 80.4397C58.8252 78.899 57.4029 77.7927 55.7014 77.329C53.908 76.839 52.0796 77.1421 50.5879 78.0222C50.5697 77.9907 50.5544 77.9608 50.5385 77.9287C49.6604 76.3902 48.241 75.2856 46.5476 74.8246C44.8478 74.358 43.0642 74.5836 41.5206 75.4606C41.4891 75.4788 41.4598 75.4963 41.4305 75.5139C41.413 75.4846 41.3993 75.4519 41.3818 75.4226C40.5037 73.8842 39.0843 72.7795 37.388 72.3169C33.8685 71.3527 30.2161 73.433 29.2439 76.9497L28.4984 79.673C28.0416 79.0189 27.6028 78.3139 27.1693 77.6197C25.8961 75.5756 24.5825 73.4624 22.6445 72.288L22.4963 72.1967L17.9454 70.4801L22.5192 45.0971C23.5835 45.103 24.5748 45.0534 25.519 44.946C29.2066 44.5184 32.0612 43.3725 34.5827 42.3597C37.4632 41.202 39.608 40.341 42.0899 40.7654L31.9028 51.1213C30.5977 52.4537 29.999 54.1404 30.1748 56.0101C30.3573 57.8684 31.2679 59.4103 32.8059 60.4686C36.5962 63.0684 41.6814 62.5769 44.897 59.301L51.6269 52.4604C62.0625 59.6126 71.2471 58.1294 78.9453 55.5183L90.9785 58.8891C91.8496 59.1337 92.5768 59.7104 93.0269 60.5118C93.469 61.3106 93.5839 62.2285 93.3381 63.0951ZM92.0706 55.3038L91.9831 55.2763L79.3862 51.7484C79.0166 51.6465 78.6249 51.6584 78.2622 51.7827C70.6952 54.4217 62.3426 55.8494 52.5307 48.4985C51.7805 47.9352 50.7272 48.0161 50.0693 48.6849L42.2148 56.6712C40.2741 58.6471 37.2039 58.9432 34.9205 57.3761C34.3051 56.9538 33.9709 56.3858 33.8977 55.6507C33.8283 54.9026 34.0492 54.2781 34.5696 53.748L46.8231 41.2879C46.8326 41.2781 46.8444 41.2676 46.8539 41.2578L49.7163 38.3483C52.3513 35.6671 58.4702 34.8501 63.8704 34.1311C67.5672 33.6379 71.0575 33.171 73.7501 32.1632C76.3562 31.1859 78.6883 29.7651 80.8334 28.2804L99.0289 49.8045C97.4222 51.8947 95.1297 53.7076 92.0706 55.3038ZM103.645 49.4534L81.6444 23.4287L88.6396 17.524L110.644 43.5475L103.645 49.4534ZM11.8586 67.9667C12.1298 68.9787 11.5226 70.027 10.5084 70.2988C9.49414 70.5706 8.44415 69.9663 8.17299 68.9543C7.90002 67.9355 8.50719 66.8872 9.52141 66.6154C10.5356 66.3437 11.5856 66.948 11.8586 67.9667ZM102.31 43.7304C102.037 42.7116 102.644 41.6633 103.658 41.3915C104.673 41.1198 105.723 41.7241 105.996 42.7428C106.267 43.7548 105.66 44.8031 104.645 45.0749C103.632 45.3489 102.582 44.7446 102.31 43.7304ZM14.3748 30.685C13.9782 30.3848 13.7171 29.9394 13.6488 29.4468C13.5805 28.9541 13.7106 28.4545 14.0105 28.0577C21.5931 18.0333 32.0331 11.0115 44.1992 7.75163C54.4614 5.00188 64.9975 5.18508 74.9936 8.24273L71.4584 3.00015C70.8789 2.14119 71.1054 0.976459 71.9644 0.396896C72.8233 -0.182664 73.9881 0.0439107 74.5676 0.902864L81.3237 10.9214C81.6379 11.388 81.7268 11.9732 81.563 12.5121C81.3993 13.051 81.0024 13.4897 80.4796 13.7026L69.2893 18.2952C69.2125 18.3255 69.1373 18.3529 69.0603 18.3736C68.1638 18.6138 67.2038 18.1552 66.8439 17.2738C66.7504 17.046 66.7027 16.802 66.7036 16.5557C66.7044 16.3095 66.7538 16.0658 66.8489 15.8387C66.9439 15.6115 67.0828 15.4053 67.2576 15.2319C67.4324 15.0584 67.6397 14.9211 67.8676 14.8278L74.6183 12.0581C65.0809 8.99165 54.9928 8.74178 45.172 11.3732C33.8186 14.4154 24.0775 20.966 17.0021 30.3207C16.7514 30.6541 16.3961 30.8937 15.993 31.0012C15.717 31.0744 15.4279 31.084 15.1475 31.0292C14.8672 30.9744 14.603 30.8567 14.3748 30.685ZM114.304 54.8496C115.983 68.1527 112.788 81.6577 105.306 92.8731C97.7556 104.194 86.3442 112.372 73.1797 115.899C60.0107 119.428 46.0394 118.052 33.8375 112.023C23.512 106.921 15.0615 98.8098 9.57762 88.8483L8.44311 95.0825C8.39897 95.3249 8.3075 95.5562 8.17394 95.7633C8.04037 95.9703 7.86732 96.149 7.66467 96.2892C7.46203 96.4293 7.23375 96.5282 6.99289 96.5801C6.75203 96.632 6.50331 96.6359 6.26092 96.5917C5.24298 96.4058 4.56651 95.4297 4.75234 94.4118L6.91246 82.5331C6.96231 82.2596 7.07242 82.0006 7.23482 81.7749C7.39721 81.5493 7.6078 81.3626 7.85131 81.2284C8.34362 80.9558 8.93313 80.9192 9.45515 81.1287L20.6751 85.6297C21.6372 86.0149 22.1019 87.106 21.7167 88.0682C21.3315 89.0304 20.2381 89.4956 19.2782 89.1098L12.5034 86.3925C23.7735 107.562 48.6081 118.601 72.2069 112.278C97.336 105.544 113.833 81.0574 110.581 55.3204C110.452 54.2924 111.178 53.3552 112.206 53.2254C113.237 53.0949 114.174 53.8216 114.304 54.8496Z" fill="#1F1E4F"/>
</svg>
