<svg width="120" height="120" viewBox="0 0 120 120" fill="none" xmlns="http://www.w3.org/2000/svg">
<path d="M119.396 109.923L106.605 85.7826C105.706 84.101 104.035 83.0971 102.134 83.0971H77.2888C88.0769 69.5039 98.5619 54.2805 98.5619 41.2064C98.5619 19.9448 81.2645 2.64746 60.0027 2.64746C38.7376 2.64746 21.4373 19.9448 21.4373 41.2064C21.4373 54.2657 31.9269 69.4952 42.7199 83.0971H17.8712C15.9599 83.0971 14.2872 84.104 13.3975 85.7882L0.613741 109.915C-0.247118 111.521 -0.201181 113.339 0.744054 114.91C1.68765 116.462 3.26921 117.352 5.08304 117.352H114.923C116.743 117.352 118.324 116.459 119.26 114.903C120.197 113.345 120.246 111.53 119.396 109.923ZM102.134 86.8469C102.65 86.8469 103.052 87.09 103.294 87.5437L105.651 91.9924H70.0684C71.4767 90.2816 72.8796 88.5665 74.2771 86.8469H102.134ZM60.0027 6.39699C79.1966 6.39699 94.8121 22.0125 94.8121 41.2061C94.8121 55.9722 78.7131 75.565 66.9583 89.8713C64.4554 92.9172 62.0699 95.8202 60.003 98.4677C57.9376 95.8228 55.555 92.9219 53.0547 89.8783C41.294 75.5615 25.187 55.9542 25.187 41.2064C25.187 22.0125 40.8053 6.39699 60.0027 6.39699ZM17.8712 86.8469H31.5428L29.8213 91.9924H14.354L16.7123 87.5416C16.952 87.0871 17.353 86.8469 17.8712 86.8469ZM3.95265 112.97C3.69929 112.549 3.6878 112.117 3.92288 111.679L7.90022 104.172H25.7432L22.5871 113.603H5.08304C4.58804 113.603 4.20648 113.387 3.95265 112.97ZM26.541 113.603L30.1255 102.893C30.2199 102.611 30.246 102.31 30.2014 102.017C30.1569 101.723 30.0431 101.443 29.8694 101.202C29.6957 100.961 29.4671 100.764 29.2025 100.629C28.9379 100.493 28.6449 100.423 28.3476 100.423H9.88702L12.3669 95.7421H31.1711C31.5643 95.7422 31.9475 95.6186 32.2666 95.3889C32.5856 95.1591 32.8244 94.8349 32.949 94.462L35.4967 86.8469H45.7307C47.2276 88.6924 48.7124 90.4999 50.1569 92.2586C53.0315 95.7578 55.7495 99.0665 57.9796 101.981C58.178 102.344 58.4706 102.646 58.8265 102.857C59.1824 103.067 59.5884 103.177 60.0018 103.176H60.0025C60.4159 103.177 60.8221 103.067 61.1781 102.857C61.5341 102.647 61.8268 102.344 62.0254 101.982C63.4996 100.055 65.1894 97.9539 66.9941 95.7421H107.638L110.118 100.423H68.7719C68.3967 100.423 68.0301 100.535 67.7195 100.746C67.4089 100.956 67.1687 101.255 67.0298 101.604C66.891 101.952 66.8599 102.334 66.9407 102.701C67.0214 103.067 67.2103 103.401 67.4828 103.659L77.983 113.603H67.1005L46.052 93.6686C45.8233 93.4518 45.5436 93.2961 45.2388 93.216C44.934 93.1359 44.614 93.134 44.3082 93.2104C44.0025 93.2867 43.7209 93.439 43.4896 93.653C43.2583 93.867 43.0846 94.1359 42.9848 94.4348L36.5708 113.603H26.541V113.603ZM61.6476 113.603H40.5252L45.6083 98.4126L61.6476 113.603ZM116.046 112.97C115.794 113.39 115.416 113.603 114.922 113.603H83.4362L73.4781 104.173H112.105L116.082 111.678C116.312 112.113 116.3 112.548 116.046 112.97ZM83.6938 41.2064C83.6938 28.143 73.0661 17.515 60.0025 17.515C46.9389 17.515 36.3112 28.1428 36.3112 41.2064C36.3112 54.2735 46.9389 64.9043 60.0025 64.9043C73.0661 64.9043 83.6938 54.2732 83.6938 41.2064ZM40.0612 41.2064C40.0612 30.2104 49.0068 21.2648 60.0027 21.2648C70.9987 21.2648 79.9443 30.2104 79.9443 41.2064C79.9443 52.2058 70.9987 61.1545 60.0027 61.1545C49.0068 61.1545 40.0612 52.2056 40.0612 41.2064Z" fill="#1F1E4F"/>
</svg>
