<svg width="76" height="48" viewBox="0 0 76 48" fill="none" xmlns="http://www.w3.org/2000/svg">
<path d="M37.2021 15.1929C37.2021 15.4004 37.2021 15.6079 37.2021 15.8154C36.8286 18.7413 34.0894 20.8579 31.1013 20.4844C28.1754 20.1108 26.0588 17.6207 26.2456 14.7571C26.2456 17.434 28.2999 19.7373 31.1013 20.1108C34.0894 20.4221 36.8286 18.3678 37.2021 15.4419C37.2021 15.3589 37.2021 15.2759 37.2021 15.1929Z" fill="#1F1E4F"/>
<path d="M37.2018 15.1928C37.2018 12.5159 35.1475 10.1503 32.3461 9.83904C29.358 9.46552 26.6189 11.5821 26.2454 14.508C26.2454 14.591 26.2454 14.674 26.2454 14.757C26.2454 14.5495 26.2661 14.342 26.3076 14.1345C26.6189 11.2086 29.358 9.09202 32.3461 9.46553C35.272 9.7768 37.3886 12.3292 37.2018 15.1928Z" fill="#1F1E4F"/>
<g opacity="0.9">
<path d="M21.95 20.7955L20.0202 20.92C19.5222 20.92 19.0864 20.5465 19.0864 20.0484L18.7751 10.9595C18.7129 10.586 18.8996 10.2747 19.2109 10.1502C18.7751 10.2125 18.4639 10.6482 18.4639 11.084L18.7751 20.1729C18.7751 20.6709 19.2109 21.0445 19.7712 21.0445L21.6387 20.92C21.8048 20.92 21.9708 20.8785 22.1368 20.7955C22.0538 20.7955 21.9915 20.7955 21.95 20.7955Z" fill="#1F1E4F"/>
</g>
<g opacity="0.9">
<path d="M37.2021 15.1929C37.2021 15.4004 37.2021 15.6079 37.2021 15.8154C36.8286 18.7413 34.0894 20.8579 31.1013 20.4844C28.1754 20.1108 26.0588 17.6207 26.2456 14.7571C26.2456 17.434 28.2999 19.7373 31.1013 20.1108C34.0894 20.4221 36.8286 18.3678 37.2021 15.4419C37.2021 15.3589 37.2021 15.2759 37.2021 15.1929Z" fill="#1F1E4F"/>
<path d="M37.2018 15.1928C37.2018 12.5159 35.1475 10.1503 32.3461 9.83904C29.358 9.46552 26.6189 11.5821 26.2454 14.508C26.2454 14.591 26.2454 14.674 26.2454 14.757C26.2454 14.5495 26.2661 14.342 26.3076 14.1345C26.6189 11.2086 29.358 9.09202 32.3461 9.46553C35.272 9.7768 37.3886 12.3292 37.2018 15.1928Z" fill="#1F1E4F"/>
</g>
<g opacity="0.9">
<path d="M43.4897 20.0485L41.6221 20.2352C41.124 20.3597 40.6261 19.9862 40.5638 19.4259L39.63 10.4615C39.63 10.088 39.7545 9.77673 40.0657 9.52772C39.63 9.65222 39.3187 10.088 39.381 10.586L40.3148 19.6127C40.3148 20.1107 40.8128 20.4842 41.3108 20.422L43.2406 20.173C43.4066 20.173 43.5519 20.1107 43.6764 19.9862C43.6349 20.0277 43.5727 20.0485 43.4897 20.0485Z" fill="#1F1E4F"/>
</g>
<path d="M74.4915 48C74.533 47.9585 74.5537 47.8963 74.5537 47.8132C74.5537 47.7717 74.5744 47.751 74.6159 47.751C74.6159 47.7095 74.6159 47.668 74.6159 47.6265C74.6159 47.585 74.6159 47.5642 74.6159 47.5642C74.6159 47.5227 74.6159 47.502 74.6159 47.502C74.6574 47.336 74.6782 47.17 74.6782 47.004C74.5952 47.336 74.533 47.668 74.4915 48Z" fill="#1F1E4F"/>
<path fill-rule="evenodd" clip-rule="evenodd" d="M75.3008 40.3428C75.3008 40.7163 75.3008 41.0691 75.3008 41.4011C75.2593 41.6086 75.2385 41.7954 75.2385 41.9614C75.2385 42.4179 75.2178 42.8537 75.1763 43.2687C75.1763 43.4555 75.1141 43.6422 75.1141 43.8912C75.1141 44.3063 75.0725 44.7005 74.9895 45.074C74.948 45.2816 74.9273 45.4891 74.9273 45.6966C74.8443 46.0701 74.7821 46.4644 74.7406 46.8794C74.6991 46.9209 74.6782 46.9624 74.6782 47.0039C74.7405 46.3814 74.7406 45.6966 74.7406 45.1986V45.074C74.7821 44.9495 74.7821 44.8458 74.7406 44.7628C74.7406 44.7213 74.7406 44.6798 74.7406 44.6383V44.3893C74.7406 44.078 74.7405 43.829 74.6782 43.4555C74.6782 43.082 74.616 42.8329 74.616 42.5839C74.616 42.5839 74.616 42.5632 74.616 42.5217C74.616 42.4802 74.616 42.4387 74.616 42.3972C74.616 42.3972 74.616 42.3764 74.616 42.3349C74.616 42.2519 74.616 42.1897 74.616 42.1482V41.8369C74.616 41.7539 74.616 41.6709 74.616 41.5879C74.616 41.3804 74.616 41.1936 74.616 41.0276C74.616 39.6581 74.5538 38.3507 74.4293 36.9812C74.367 36.2964 74.3047 35.7984 74.0557 35.0513C73.869 34.6156 73.4332 33.5573 73.1842 33.1215C73.122 33.246 72.6239 34.5533 72.6239 34.6778C72.5824 34.7193 72.5824 34.7816 72.6239 34.8646C72.6239 35.1136 72.6862 35.3626 72.7484 35.5494C72.9352 36.9189 73.0597 38.2262 73.1842 39.5958C73.1842 39.6788 73.1842 39.7618 73.1842 39.8448C73.1842 40.3013 73.1842 40.7579 73.1842 41.2144C73.1842 41.4011 73.0597 41.6501 72.873 41.9614C72.3127 42.8952 71.1299 44.327 70.3829 45.074C70.2169 45.2816 70.0715 45.4476 69.947 45.5721C69.9055 45.5721 69.8848 45.5513 69.8848 45.5098C69.8018 45.3853 69.698 45.2401 69.5735 45.074C69.3868 44.7628 69.1378 44.3893 68.951 44.078C68.7643 43.829 68.5775 43.58 68.3907 43.331C68.2662 43.2065 68.0172 42.9575 67.955 42.7707C67.9135 42.6877 67.8927 42.6254 67.8927 42.5839C67.8927 42.5217 68.1417 42.2727 68.3907 41.9614C68.702 41.5879 69.0755 41.2144 69.1378 41.0899C69.5736 40.6541 70.0093 40.1561 70.3205 39.6581C71.1298 38.662 71.4411 38.413 71.4411 37.915C71.5034 37.6037 71.3788 37.2302 71.2543 36.4832C71.1298 35.3626 70.9431 34.3043 70.6318 33.1838C70.445 32.4367 68.453 30.7559 67.8927 30.1334C67.706 30.3201 67.0834 31.4407 66.8966 31.7519C66.2741 32.8102 65.5894 33.744 64.9046 34.8023C64.6556 35.0513 64.4066 35.2381 64.4688 35.5494C64.8424 36.9812 65.0913 38.4753 65.2781 39.8448C65.2781 39.9278 65.2781 40.0108 65.2781 40.0938C65.2781 40.2806 65.0914 40.3428 64.8423 40.5919C64.4688 41.0276 64.0331 41.5256 63.5973 41.9614C63.286 42.2727 62.9748 42.5839 62.6635 42.7707C62.6635 42.7085 62.6013 42.3349 62.6013 41.9614C62.539 41.5879 62.5389 41.2144 62.5389 41.0899C62.3522 39.409 62.0409 37.7905 61.6051 36.1096C61.4391 35.5701 61.2732 35.0098 61.1072 34.4288C60.7959 33.5573 60.9204 33.495 60.0488 33.1838C59.3018 32.8102 57.6832 32.1877 56.9362 32.1255C56.6872 32.3745 56.3137 33.1215 56.0647 33.495C55.0687 35.0513 54.8196 35.1759 54.8819 35.5494C54.8819 35.7361 55.0064 35.9229 55.1309 36.2964C55.6912 37.7905 56.0647 39.3468 56.376 40.8409C56.376 41.0276 56.4382 41.4634 56.5627 41.9614C56.6249 42.6462 56.7495 43.4555 56.7495 43.7667V43.829C56.708 43.829 56.6872 43.829 56.6872 43.829C56.5627 43.8912 55.2554 43.3932 54.9441 43.331C54.5706 43.2065 53.5123 42.8952 53.201 42.8952C53.0765 42.6462 53.0143 42.2727 53.0143 41.9614L52.9521 41.8369C52.5163 39.7826 51.8937 37.7282 51.0222 35.7984C50.8977 35.6116 50.8354 35.4249 50.7109 35.2381C50.7109 35.1759 50.6487 35.0513 50.5864 34.9268C50.5864 34.8646 50.5242 34.8023 50.5242 34.7401C50.5242 34.7401 52.3295 31.5029 52.454 31.1917C52.7653 30.6937 52.9521 30.4446 52.9521 30.2579C53.0143 30.1334 52.952 30.0089 52.8275 29.7598C52.205 28.8261 51.6447 27.9545 51.0222 27.083C50.7109 27.1452 47.9718 26.834 47.6606 27.083C47.5361 27.1452 46.3532 30.4446 46.2287 30.8182C45.6685 32.3122 46.042 32.001 44.7346 32.1877C42.9916 32.4367 41.2485 32.8102 39.6299 33.3705C39.2564 33.495 38.8829 33.6195 38.5716 33.744C38.2603 33.8063 37.7623 34.0553 37.5133 34.1175C37.2021 33.9308 37.0153 33.6195 36.704 33.3705C36.3305 32.997 34.8365 31.8765 34.4007 31.4407C34.3177 31.3577 34.2762 31.2954 34.2762 31.2539C35.3968 30.5069 39.0697 29.3241 40.5015 28.9506L42.5558 28.4526C42.7426 28.2658 43.2406 25.5889 43.6141 24.7174C43.6141 24.6759 43.6349 24.6344 43.6764 24.5929C43.1784 23.9081 40.875 22.165 40.0034 21.6047C39.7544 21.4802 39.4431 21.6047 39.1941 21.667C36.8908 22.2273 34.6497 22.8498 32.4086 23.8458C32.2841 23.9081 31.3503 24.1571 30.9768 24.2816C30.8523 24.2816 29.4204 24.0949 29.2337 24.0326C27.1793 23.2233 25.125 22.7253 23.0084 22.2895C22.0124 22.0405 22.0746 21.916 21.3898 22.4763C20.2693 23.4101 19.3355 24.3439 18.3394 25.2777C18.3394 25.3192 18.3394 25.3814 18.3394 25.4644C18.5262 26.3359 19.0242 28.577 19.211 29.1373C19.46 29.1996 20.0203 29.2618 20.2693 29.3241C21.2031 29.4486 22.3236 29.6976 23.2574 30.0089C24.4402 30.3824 25.8098 30.8182 26.9304 31.3784L27.1171 31.5029C27.1171 31.5444 27.0756 31.6067 26.9926 31.6897C26.6813 32.001 25.6853 32.8102 25.4985 32.997C25.0627 33.4328 24.4403 34.2421 24.0045 34.4911C22.7594 34.0553 21.5143 33.6818 20.207 33.4328C19.5845 33.246 18.8997 33.1838 18.2772 33.0593C18.0282 32.997 16.4719 32.9347 16.3474 32.8725C16.0984 32.6857 15.1023 29.2618 14.6666 28.2658C14.6666 28.1413 14.542 28.1413 14.4798 28.079C13.8573 28.079 11.9274 28.1413 11.3049 28.8883L10.0599 31.0049C9.93535 31.2539 9.87305 31.2539 9.9353 31.4407C9.9353 31.4822 9.95611 31.5237 9.99762 31.5652L11.8652 35.3626C12.052 35.7361 12.1142 35.8606 12.0519 36.0474C11.9897 36.2341 11.8029 36.4832 11.6162 37.1057C11.1182 38.4753 10.6824 40.1561 10.4334 41.5879C10.4334 41.7124 10.4126 41.8369 10.3711 41.9614C10.3089 42.6462 10.2466 43.5177 10.1843 43.8912C9.81081 44.078 9.18827 44.2648 8.69025 44.4515C8.37898 44.576 7.44524 45.0118 7.25848 45.0118C7.21697 44.9288 7.19624 44.7628 7.19624 44.5138C7.15474 44.4308 7.15474 44.3478 7.19624 44.2648C7.19624 43.6422 7.25846 42.7707 7.32071 41.9614C7.44522 40.9031 7.63195 39.7826 7.75645 39.3468C7.81871 38.911 7.94321 38.413 8.06772 37.9772C8.06772 37.7905 8.31673 37.1679 8.37898 36.7944C8.37898 36.7114 8.37898 36.6492 8.37898 36.6077C8.37898 36.5454 6.63596 33.5573 6.57371 33.495C5.76442 33.6818 4.83062 34.2421 4.14584 34.6778C3.77232 34.8646 3.52332 34.8646 3.46107 35.2381C3.33656 35.7361 3.212 36.1719 3.08749 36.7322C2.71397 38.5998 2.52723 40.2183 2.40273 41.9614C2.40273 42.4594 2.40273 42.9574 2.40273 43.4555C2.40273 43.497 2.40273 43.5385 2.40273 43.58V43.829C2.40273 43.829 2.40273 43.8497 2.40273 43.8912C2.40273 43.9328 2.40273 43.9743 2.40273 44.0158C2.40273 44.0988 2.40273 44.161 2.40273 44.2025C2.09146 44.1403 0.784137 42.5217 0.597379 42.2104C0.472873 42.0859 0.410681 42.0237 0.348428 41.9614C0.306926 41.9199 0.265379 41.8577 0.223877 41.7747C0.223877 41.6917 0.223877 41.6087 0.223877 41.5257C0.28613 41.0276 0.286175 40.5919 0.348428 40.1561C0.410681 38.7865 0.597379 37.4792 0.908643 36.1096C1.0954 35.1759 1.53123 33.0593 1.90475 32.1255C2.09151 31.6897 4.27034 30.5069 4.76836 30.2579C5.32864 30.0089 6.01339 29.8221 6.1379 29.5108C6.55291 28.6808 7.00948 27.8093 7.5075 26.8962C7.56976 26.7717 7.6942 26.6472 7.75645 26.4605C7.75645 26.3775 7.75645 26.3152 7.75645 26.2737L7.00945 24.1571C6.32467 24.4684 5.63987 24.7174 4.89284 25.0909C4.08355 25.5267 3.46102 25.9002 2.71399 26.3982C2.34047 25.7134 2.15373 24.4684 2.02922 23.7836C1.96697 23.2856 1.90469 22.9121 1.84244 22.4763C1.80093 22.3103 1.7802 22.1235 1.7802 21.916C1.7802 21.667 1.78024 21.418 1.90475 21.2312C2.27827 20.5464 4.51935 17.1225 5.07963 16.6868C5.07963 16.7698 5.07963 16.8528 5.07963 16.9358C5.12113 16.9358 5.12113 16.9565 5.07963 16.998L5.14187 17.247C5.10036 17.3716 5.07963 17.5168 5.07963 17.6828C5.12113 17.7243 5.14187 17.7866 5.14187 17.8696V18.2431C5.14187 18.2846 5.14187 18.3468 5.14187 18.4298C5.14187 18.5544 5.14187 18.6789 5.14187 18.8034C5.20412 19.7372 5.32861 20.9822 5.51537 21.418C5.76438 21.3557 6.94721 20.7955 7.25848 20.671C7.81875 20.4219 8.379 20.2352 8.93927 20.0484C9.43729 19.9239 9.93536 19.1769 10.3089 18.7411C11.1182 17.8696 11.9275 17.0603 12.799 16.251C12.9235 16.1265 12.9235 16.1265 12.9857 16.0642C12.9857 16.0227 12.9857 15.9605 12.9857 15.8775C12.8612 15.1304 12.799 14.2589 12.799 13.4496C12.799 13.3251 12.799 13.2006 12.799 13.0761V12.9516C12.799 12.9101 12.799 12.8686 12.799 12.8271V12.7648C12.799 12.7648 12.799 12.7441 12.799 12.7026C12.799 12.6611 12.799 12.6403 12.799 12.6403C12.799 12.3913 12.799 12.0178 12.8612 11.6443C12.8197 11.6028 12.8197 11.5613 12.8612 11.5198C12.8197 11.4783 12.799 11.4368 12.799 11.3953C12.8612 11.2085 12.799 11.084 12.799 11.0218C11.8652 11.3953 10.7446 11.7065 9.81083 12.1423L8.87704 12.5781C8.87704 12.5366 8.87704 12.5158 8.87704 12.5158C8.87704 12.2668 9.00157 11.8933 9.06382 11.582C9.12608 11.2708 9.12606 10.835 9.43733 10.586C10.8691 9.6522 14.293 8.46939 15.7871 8.09588C16.2851 7.97137 17.5302 7.78462 17.9037 7.59786C19.2733 6.72632 20.7673 6.04154 22.1992 5.41901C23.0084 5.0455 22.6349 4.98323 23.0084 3.92493C23.0084 3.84193 23.0292 3.75893 23.0707 3.67592H22.8839C22.8839 3.67592 22.7594 3.67592 22.6971 3.67592C20.0825 4.17395 18.464 4.42296 15.7871 5.54351L13.6705 6.53956C13.795 6.37355 13.9818 6.20755 14.2308 6.04154C14.3138 6.00004 14.3968 5.95853 14.4798 5.91703C14.5628 5.87553 14.6458 5.81328 14.7288 5.73028C15.3513 5.41901 16.0361 5.04549 16.7831 4.67197C17.0321 4.54747 17.2812 4.42296 17.5302 4.29845C17.5717 4.25695 17.6339 4.23619 17.7169 4.23619C17.8829 4.15319 18.0697 4.07019 18.2772 3.98719C18.2772 3.94568 18.2772 3.92493 18.2772 3.92493C18.6092 3.80042 18.9205 3.67593 19.211 3.55143C19.211 3.55143 19.2317 3.53067 19.2732 3.48917C19.6467 3.32316 19.9788 3.1779 20.2693 3.05339H20.3316C20.7673 2.99114 21.1408 2.9289 21.3276 2.86664C22.1161 2.65913 22.8632 2.51387 23.5687 2.43087C24.4402 2.24411 25.374 2.1196 26.3078 2.05735C26.8681 1.99509 28.2999 1.8706 28.7357 1.93285L28.6735 2.18186L28.3622 3.24016C28.2999 3.36467 28.2999 3.36467 28.2999 3.48917V3.73818C28.7357 3.80043 30.4165 3.86268 31.1636 3.98719C31.4748 4.04944 31.8484 4.1117 32.0974 4.04944C32.7822 3.98719 33.4046 3.80043 34.0894 3.67592L36.0815 3.42692L36.4551 1.68384C37.0153 1.37258 41.5598 1.68383 42.2445 1.74608C43.6763 1.80833 45.6685 2.18186 47.1625 2.49312C47.3493 2.55538 47.5983 2.61764 47.785 2.61764C47.8473 2.61764 47.8473 2.61764 47.9095 2.61764C47.9095 2.53463 47.8888 2.47237 47.8473 2.43087C47.8058 2.34786 47.7643 2.28562 47.7228 2.24412C47.9718 2.32712 48.2208 2.41012 48.4698 2.49312C48.6773 2.57613 48.8848 2.65913 49.0923 2.74213C49.4659 2.86664 49.8394 3.0119 50.2129 3.17791C50.3374 3.21941 50.4827 3.2609 50.6487 3.3024C50.6487 3.3439 50.6694 3.36466 50.7109 3.36466C50.8354 3.40616 50.96 3.44767 51.0845 3.48917C51.2505 3.57218 51.4165 3.65518 51.5825 3.73818C51.707 3.77968 51.8107 3.84193 51.8937 3.92493C52.2257 4.04944 52.537 4.1947 52.8275 4.36071C52.9105 4.36071 52.9728 4.38146 53.0143 4.42296V4.48522V4.54746C53.0766 4.54746 53.0765 4.60972 53.0765 4.67197C53.0765 4.85873 53.1388 4.98323 53.201 5.16999C53.1595 5.16999 53.1388 5.16999 53.1388 5.16999C52.8275 5.10773 52.1427 4.85873 51.8315 4.73423C50.3374 4.29846 49.2169 3.98719 47.6606 3.67592C46.9135 3.48916 42.867 2.86663 41.9955 2.99114C41.871 3.11564 41.871 3.48916 41.8088 3.67592C41.8088 4.04944 41.7466 4.23621 41.7466 4.48522L44.5479 5.66802C45.046 5.85478 45.4817 6.04154 45.9797 6.29055C46.2287 6.41505 46.4777 6.60182 46.6645 6.66407C46.8512 6.66407 47.1003 6.72631 47.4115 6.72631C48.4698 6.85081 49.4036 7.03758 50.3374 7.22434C51.2712 7.4111 52.3295 7.66011 53.2633 7.90913C56.1892 8.84292 56.3759 8.71841 58.8038 10.9595C61.0449 12.9516 62.5389 14.5702 64.4065 17.0603C64.531 17.1848 65.8384 18.1186 66.1496 18.3676C66.3986 18.6166 66.7099 18.8656 67.0212 19.1146C67.2079 19.2391 67.6437 19.7372 67.8304 19.8617C67.8927 19.7372 67.8927 19.5504 67.8927 19.3014C67.8927 19.2599 67.8927 19.2184 67.8927 19.1769C67.8927 19.1146 67.955 19.1146 67.8927 19.0524V18.9901C67.8927 18.8656 67.8927 18.7411 67.8927 18.6789C67.8305 18.0563 67.7682 18.0563 67.2702 17.4338C65.2781 14.5702 62.9125 11.9556 60.2979 9.6522C59.9243 9.34093 59.5508 9.09192 59.3641 8.7184C59.3226 8.5524 59.2395 8.3864 59.115 8.22039C59.5716 8.5524 60.0074 8.8844 60.4224 9.21642C60.5884 9.34093 60.7336 9.46544 60.8581 9.58994C61.2732 9.92196 61.6882 10.2747 62.1032 10.6482C62.4352 10.9388 62.788 11.2708 63.1615 11.6443L63.286 11.7688C63.618 12.1008 63.95 12.4328 64.2821 12.7648C64.4481 12.9723 64.6141 13.1591 64.7801 13.3251C65.0706 13.6156 65.3611 13.9269 65.6516 14.2589C65.6516 14.2589 65.6516 14.2797 65.6516 14.3212C65.9006 14.6117 66.1497 14.9022 66.3987 15.1927C66.6892 15.5247 66.9589 15.8775 67.2079 16.251C67.2909 16.3755 67.3739 16.5 67.4569 16.6245C67.6644 16.915 67.8719 17.2263 68.0795 17.5583L67.2079 16.5C67.7059 17.1225 68.204 17.9318 68.702 18.6789C68.9095 18.9694 69.0963 19.2806 69.2623 19.6126L69.5113 20.0484C70.1961 21.2935 70.7563 21.8537 70.8186 23.2856C70.8186 23.3686 70.8186 23.4308 70.8186 23.4723C70.8186 24.0949 70.9431 24.0948 71.2543 24.8419C71.7524 26.0247 72.0636 27.083 72.7484 28.2658C72.9974 28.7638 73.2465 29.5109 73.5577 29.9466C73.5992 29.8636 73.62 29.7806 73.62 29.6976V29.6354C73.62 29.2618 73.4954 28.8883 73.4332 28.5148C73.4332 28.4318 73.4332 28.3488 73.4332 28.2658C73.6822 28.7638 74.0558 30.2579 74.1803 30.8804C74.8028 33.3083 75.114 35.8606 75.2385 38.3507C75.28 38.5583 75.3008 38.7658 75.3008 38.9733C75.3008 39.1808 75.3008 39.3883 75.3008 39.5958C75.3008 39.8448 75.3008 40.0938 75.3008 40.3428ZM22.5727 19.9239L22.4482 16.8113L22.2614 10.7727C22.2614 10.2125 21.7634 9.7767 21.2031 9.83895L19.3355 10.088C19.294 10.088 19.2525 10.1087 19.211 10.1502C18.8997 10.2747 18.713 10.586 18.7752 10.9595L19.0865 20.0484C19.0865 20.5464 19.5223 20.92 20.0203 20.92L21.9501 20.7954C21.9916 20.7954 22.0539 20.7954 22.1369 20.7954C22.3859 20.6087 22.5727 20.2974 22.5727 19.9239ZM37.2021 15.1927C37.2021 12.5158 35.1477 10.1502 32.3463 9.83895C29.3582 9.46543 26.6191 11.582 26.2456 14.5079C26.2456 14.5909 26.2456 14.6739 26.2456 14.7569C26.2456 17.4338 28.2999 19.7371 31.1013 20.1107C34.0894 20.4219 36.8286 18.3676 37.2021 15.4417C37.2021 15.3587 37.2021 15.2757 37.2021 15.1927ZM44.0499 19.1146L43.1783 9.96346C43.1161 9.46544 42.5558 9.09193 42.0578 9.15418L40.1902 9.52768C40.1487 9.52768 40.1072 9.54844 40.0657 9.58994C39.7544 9.7767 39.6299 10.088 39.6299 10.4615L40.5637 19.4881C40.626 19.9862 41.124 20.3597 41.622 20.2974L43.4896 20.0484C43.5726 20.0484 43.6349 20.0484 43.6764 20.0484C43.9254 19.7994 44.1121 19.4881 44.0499 19.1146ZM55.0686 18.6789C55.2554 18.7411 55.3799 18.8034 55.6289 18.8034L58.8661 19.7994C58.9906 19.6126 59.0528 19.4259 59.115 19.1769L59.5508 17.9941C59.6131 17.7451 59.6753 17.5583 59.7376 17.3715C59.7998 17.1225 60.2356 15.6285 60.3601 15.0682C60.3601 14.9852 60.3601 14.9229 60.3601 14.8814C59.9866 14.2589 56.6872 11.1463 56.1892 10.9595C54.7574 10.4615 53.6368 10.2125 52.205 9.83895C51.956 9.7767 51.7692 9.71446 51.5825 9.77671C51.5825 10.3992 50.5864 14.1344 50.3996 14.8192L50.462 14.8814L52.454 16.6868C52.8275 16.998 54.2593 18.4921 54.4461 18.5543C54.6328 18.6166 54.8818 18.6166 55.0686 18.6789ZM70.1961 26.5227C69.7603 25.4022 69.1378 24.1571 68.6397 23.1611C68.3285 22.4763 64.9668 19.9239 64.2198 19.6126L64.0953 19.5504L63.2238 22.1028C63.037 22.5385 62.3522 24.2816 62.1032 24.5929L59.4263 23.4723C58.866 23.2856 57.123 22.663 56.6872 22.663C56.625 22.7875 55.6911 24.9041 55.6289 25.0287C55.6289 25.0702 55.6496 25.1116 55.6911 25.1531C56.1892 25.9002 56.625 26.5227 57.123 27.2697C57.2475 27.581 57.5587 28.2035 57.8077 28.328C60.3601 29.1373 60.2356 29.1373 62.7257 30.2579C63.037 29.8844 64.6555 26.8962 64.9668 26.2115C65.0913 25.9624 65.4648 25.0286 65.6516 24.8419C66.4609 25.2154 68.951 27.5188 69.698 28.2658C69.8225 28.1413 70.0716 27.332 70.1338 27.083C70.1753 27 70.1961 26.9377 70.1961 26.8962C70.2583 26.7717 70.2583 26.7095 70.1961 26.5227ZM21.5766 2.61764C21.4521 2.65914 21.3484 2.67987 21.2654 2.67987C21.3484 2.63837 21.4521 2.61764 21.5766 2.61764ZM21.2654 2.74213C21.1824 2.74213 21.0993 2.76289 21.0163 2.80439C21.0993 2.76289 21.1616 2.74213 21.2031 2.74213C21.2446 2.74213 21.2654 2.74213 21.2654 2.74213ZM21.2654 2.67987C21.2654 2.72138 21.2654 2.74213 21.2654 2.74213C21.2654 2.70063 21.2654 2.67987 21.2654 2.67987ZM21.0163 2.80439C20.9333 2.84589 20.8503 2.86664 20.7673 2.86664C20.8503 2.82514 20.9333 2.80439 21.0163 2.80439Z" fill="#1F1E4F"/>
<path d="M68.0794 17.3093L67.2078 16.251C68.0171 17.3093 68.8887 18.6166 69.5112 19.7994C70.2583 21.0444 70.7563 21.667 70.8185 23.1611V23.2855C70.7563 21.8537 70.2583 21.2935 69.5112 20.0484C68.8887 18.8656 68.0171 17.5583 67.2078 16.5L68.0794 17.5583C66.5231 15.0682 64.1575 12.4536 62.1031 10.6482C61.1071 9.77669 60.111 8.96741 59.115 8.22037C58.6792 7.59784 57.8699 7.09981 57.3719 6.78854C56.4381 6.16602 54.0103 4.67196 53.0142 4.42295C53.0142 4.38144 53.0142 4.38144 53.0142 4.42295C51.3126 3.55141 49.5488 2.82512 47.7227 2.2441C47.4737 1.99508 46.9757 1.93282 46.6644 1.80832C46.6644 1.80832 45.7306 1.62157 44.4233 1.3103C44.1328 1.2688 43.8008 1.20654 43.4273 1.12353C43.2198 1.04053 43.0123 0.99904 42.8047 0.99904C42.7632 0.957538 42.701 0.936783 42.618 0.936783C40.7504 0.563266 38.5716 0.189741 37.202 0.189741C36.3927 0.189741 35.5834 0.189741 34.7741 0.189741C34.6911 0.231243 34.5874 0.251998 34.4629 0.251998C33.6328 0.251998 32.8028 0.293508 31.9727 0.376511C30.7899 0.376511 28.0508 0.501013 27.3038 0.936783C27.2623 0.978285 27.2208 0.99904 27.1793 0.99904C25.0212 1.45556 22.8838 2.07809 20.7672 2.86662C20.6842 2.90813 20.539 2.97037 20.3315 3.05338C20.29 3.05338 20.2693 3.05338 20.2693 3.05338C18.7129 3.73816 14.7287 5.48124 13.6704 6.53954L13.3591 6.66405C13.6081 5.85476 17.3433 4.11168 19.4599 3.17789C20.0825 2.92888 20.5805 2.67987 20.7672 2.61762C25.4984 0.812285 30.4164 -0.0592623 35.2722 0.00299055C42.12 0.00299055 49.4035 1.80833 55.691 5.668C57.8076 6.97531 59.9243 8.46938 62.1031 10.3992C64.1575 12.2668 66.5231 14.8192 68.0794 17.3093Z" fill="#1F1E4F"/>
<path d="M4.89286 39.9073C5.95116 40.1563 7.07171 39.4715 7.38297 38.2887C7.75649 37.1059 7.19622 35.9231 6.13792 35.6119C5.07962 35.3006 3.95907 36.0476 3.64781 37.2304C3.33654 38.4132 3.89682 39.5961 4.89286 39.9073Z" fill="#EE7823"/>
<path d="M58.617 39.0356C59.7998 38.9111 60.6713 37.7283 60.4846 36.3587C60.3601 35.0514 59.3018 34.0554 58.1189 34.1799C56.9984 34.3044 56.1269 35.4872 56.2514 36.7945C56.4381 38.1641 57.4965 39.1601 58.617 39.0356Z" fill="#EE7823"/>
<path d="M68.6397 38.5376C69.698 38.4131 70.445 37.2303 70.3205 35.923C70.1338 34.6157 69.2 33.6197 68.1417 33.6819C67.0834 33.8064 66.3986 34.9892 66.5231 36.2965C66.6476 37.6661 67.6437 38.6621 68.6397 38.5376Z" fill="#EE7823"/>
<path d="M20.9542 27.768C22.0125 28.764 23.5065 28.8263 24.3781 27.9547C25.2496 27.0832 25.1251 25.5891 24.129 24.5931C23.133 23.5348 21.5767 23.4725 20.7051 24.3441C19.8336 25.2156 19.9581 26.7719 20.9542 27.768Z" fill="#EE7823"/>
<path d="M6.8226 18.7413C7.56963 19.4883 9.06373 19.2393 10.122 18.181C11.1803 17.1227 11.3671 15.6286 10.6201 14.8816C9.81079 14.1345 8.37895 14.3835 7.32065 15.4418C6.26235 16.5001 6.01331 17.9942 6.8226 18.7413Z" fill="#EE7823"/>
<path d="M15.9116 6.91329C16.1606 7.47356 17.2811 7.47355 18.4639 7.03778C19.6467 6.53976 20.456 5.79273 20.207 5.29471C20.0202 4.73444 18.8996 4.73443 17.7168 5.1702C16.534 5.66822 15.7248 6.41527 15.9116 6.91329Z" fill="#EE7823"/>
<path d="M44.6101 4.5476C44.4856 5.04562 45.4816 5.79266 46.8512 6.16618C48.2208 6.53969 49.4658 6.41519 49.5903 5.85491C49.7148 5.35689 48.7188 4.60985 47.4115 4.23633C46.0419 3.86282 44.7969 3.98732 44.6101 4.5476Z" fill="#EE7823"/>
<path d="M63.037 13.6365C62.7257 13.8855 63.1615 15.006 63.9708 16.1888C64.8423 17.3094 65.7761 17.9942 66.1496 17.7452C66.4609 17.4961 66.0251 16.3756 65.2158 15.255C64.3443 14.1345 63.4105 13.3875 63.037 13.6365Z" fill="#EE7823"/>
<path d="M37.451 27.0209C38.4471 28.0169 39.9412 28.1414 40.8127 27.2699C41.6842 26.3983 41.5597 24.842 40.5637 23.846C39.5676 22.8499 38.0113 22.7254 37.1398 23.597C36.2682 24.5308 36.3927 26.0248 37.451 27.0209Z" fill="#EE7823"/>
<path d="M54.3095 16.6752C55.8659 17.6713 57.609 17.6713 58.2315 16.6752C58.7918 15.7415 58.0447 14.1229 56.4884 13.1891C54.9943 12.193 53.189 12.193 52.6287 13.1268C52.0062 14.1229 52.7532 15.6792 54.3095 16.6752Z" fill="#EE7823"/>
<path d="M33.529 12.9517C34.1516 13.5743 34.4006 14.4458 34.2761 15.2551C34.2139 15.6909 34.0271 16.1267 33.6536 16.5002C32.7198 17.434 31.1634 17.3717 30.1051 16.3757C29.4826 15.7531 29.2336 14.9439 29.2959 14.1346C29.3582 13.6365 29.6071 13.2008 29.9807 12.8273C30.9145 11.8935 32.4707 11.8935 33.529 12.9517Z" fill="#EE7823"/>
</svg>
