<svg width="106" height="80" viewBox="0 0 106 80" fill="none" xmlns="http://www.w3.org/2000/svg">
<path d="M94.8771 61.8304L90.3826 56.9841H83.8167V54.2874H91.0861C92.2195 54.2874 93.1184 54.0138 93.6265 53.3885C94.1736 52.8023 94.5254 51.9034 94.5254 50.77C94.5254 49.6366 94.1736 48.7767 93.6265 48.2296C93.0402 47.6043 92.2195 47.3698 91.0861 47.3698H81.5499V61.8304H78.5405V44.2822H91.0861C92.1413 44.2822 93.0402 44.4776 93.8219 44.7121C94.6035 45.0639 95.307 45.4938 95.8151 46.0409C96.3622 46.549 96.7922 47.2525 97.0657 48.0733C97.3393 48.8549 97.4956 49.7147 97.4956 50.6918C97.4956 52.1769 97.1439 53.3885 96.5186 54.3656C95.9323 55.4208 95.0334 56.1243 93.9 56.5542L99.1762 61.8304H94.8771Z" fill="#29A4DD"/>
<path d="M60.7578 61.8304V44.2822H76.43V47.3698H63.8063V58.7428H76.43V61.8304H60.7578Z" fill="#29A4DD"/>
<path d="M66.0732 54.2093V51.6689H75.7267V54.2093H66.0732Z" fill="#29A4DD"/>
<path d="M101.99 44.2432V61.7913H105.078V44.2432H101.99Z" fill="#29A4DD"/>
<path d="M57.8269 47.956C57.5403 47.1743 57.1234 46.5099 56.5762 45.9628C56.0291 45.4417 55.3647 45.0248 54.583 44.7121C54.2443 44.6079 53.8925 44.5167 53.5278 44.4386C53.5017 44.4386 53.4626 44.4386 53.4105 44.4386C53.3845 44.4125 53.3454 44.3995 53.2933 44.3995C53.2672 44.3995 53.2281 44.3865 53.176 44.3604C52.7591 44.3083 52.3162 44.2822 51.8472 44.2822H39.4971V61.8304H42.5455V47.3307H51.8472C52.3423 47.3307 52.7852 47.3958 53.176 47.5261C53.2281 47.5522 53.2672 47.5652 53.2933 47.5652C53.3454 47.5912 53.3845 47.6173 53.4105 47.6433C53.4626 47.6433 53.5017 47.6564 53.5278 47.6824C53.8404 47.8127 54.127 47.9951 54.3876 48.2296C54.9869 48.8289 55.2865 49.6366 55.2865 50.6527C55.2865 51.6428 54.9869 52.4505 54.3876 53.0758C54.127 53.3103 53.8404 53.5057 53.5278 53.6621C53.5017 53.6621 53.4626 53.6751 53.4105 53.7012C53.3845 53.7272 53.3454 53.7402 53.2933 53.7402C53.2672 53.7663 53.2281 53.7793 53.176 53.7793C52.7852 53.9096 52.3423 53.9747 51.8472 53.9747H44.8123V56.945H51.8472C52.3162 56.945 52.7591 56.919 53.176 56.8669C53.2281 56.8408 53.2672 56.8278 53.2933 56.8278C53.3454 56.8278 53.3845 56.8147 53.4105 56.7887C53.4626 56.7887 53.5017 56.7887 53.5278 56.7887C53.8925 56.7105 54.2443 56.6063 54.583 56.476C55.3647 56.1634 56.0291 55.7335 56.5762 55.1863C57.1234 54.6131 57.5403 53.9357 57.8269 53.154C58.1135 52.3724 58.2568 51.5125 58.2568 50.5745C58.2568 49.5844 58.1135 48.7116 57.8269 47.956Z" fill="#EE7823"/>
<path d="M52.4333 10.632C52.4333 10.7623 52.4203 10.9056 52.3942 11.0619C52.1597 13.0942 50.2447 14.5793 48.1342 14.3058C46.1019 14.0713 44.6168 12.3126 44.734 10.3193C44.7731 12.1953 46.2192 13.7977 48.1342 14.0322C50.2447 14.3058 52.1597 12.8206 52.3942 10.7883C52.4203 10.7362 52.4333 10.6841 52.4333 10.632Z" fill="#1F1E4F"/>
<path d="M52.4334 10.5934C52.4334 8.71741 50.9874 7.11502 49.0332 6.88052C46.9228 6.64602 45.0077 8.09209 44.7732 10.1635C44.7732 10.2156 44.7602 10.2547 44.7341 10.2807C44.7602 10.1504 44.7732 10.0202 44.7732 9.88989C45.0077 7.8185 46.9228 6.37245 49.0332 6.60694C51.0655 6.84144 52.5507 8.63924 52.4334 10.5934Z" fill="#1F1E4F"/>
<g opacity="0.9">
<path d="M41.7246 14.541L40.4349 14.6191C40.0441 14.6191 39.7314 14.3456 39.7314 13.9938L39.4969 7.66241C39.4969 7.42792 39.6142 7.19342 39.8096 7.07617C39.4969 7.15434 39.3015 7.42792 39.3015 7.74058L39.536 14.072C39.536 14.4628 39.8487 14.7364 40.2004 14.6973L41.5292 14.6191C41.6595 14.6191 41.7768 14.5931 41.881 14.541C41.8289 14.541 41.7768 14.541 41.7246 14.541Z" fill="#1F1E4F"/>
</g>
<g opacity="0.9">
<path d="M52.4333 10.632C52.4333 10.7623 52.4203 10.9056 52.3942 11.0619C52.1597 13.0942 50.2447 14.5793 48.1342 14.3058C46.1019 14.0713 44.6168 12.3126 44.734 10.3193C44.7731 12.1953 46.2192 13.7977 48.1342 14.0322C50.2447 14.3058 52.1597 12.8206 52.3942 10.7883C52.4203 10.7362 52.4333 10.6841 52.4333 10.632Z" fill="#1F1E4F"/>
<path d="M52.4334 10.5934C52.4334 8.71741 50.9874 7.11502 49.0332 6.88052C46.9228 6.64602 45.0077 8.09209 44.7732 10.1635C44.7732 10.2156 44.7602 10.2547 44.7341 10.2807C44.7602 10.1504 44.7732 10.0202 44.7732 9.88989C45.0077 7.8185 46.9228 6.37245 49.0332 6.60694C51.0655 6.84144 52.5507 8.63924 52.4334 10.5934Z" fill="#1F1E4F"/>
</g>
<g opacity="0.9">
<path d="M56.8107 13.993L55.521 14.1494C55.1301 14.2275 54.8175 13.954 54.7784 13.6022L54.1531 7.27081C54.114 7.03631 54.2312 6.80182 54.4267 6.68457C54.114 6.76274 53.8795 7.0754 53.9186 7.38806L54.583 13.6804C54.6221 14.0712 54.9347 14.3057 55.2865 14.2666L56.6153 14.1103C56.7456 14.0842 56.8498 14.0451 56.9279 13.993C56.9019 13.993 56.8628 13.993 56.8107 13.993Z" fill="#1F1E4F"/>
</g>
<path d="M78.5015 33.5736C78.5275 33.5475 78.5405 33.4954 78.5405 33.4173C78.5405 33.4173 78.5405 33.4042 78.5405 33.3782C78.5666 33.3521 78.5796 33.3261 78.5796 33.3C78.5796 33.274 78.5796 33.2479 78.5796 33.2219C78.6057 33.1176 78.6187 33.0004 78.6187 32.8701C78.5666 33.1046 78.5275 33.3391 78.5015 33.5736Z" fill="#1F1E4F"/>
<path fill-rule="evenodd" clip-rule="evenodd" d="M79.0486 28.2196C79.0486 28.4541 79.0486 28.7016 79.0486 28.9621C79.0486 29.0924 79.0356 29.2227 79.0095 29.353C79.0095 29.6396 78.9965 29.9392 78.9705 30.2519C78.9705 30.4082 78.9314 30.5255 78.9314 30.6818C78.9314 30.9684 78.9053 31.255 78.8532 31.5416C78.8272 31.6719 78.8011 31.8021 78.775 31.9324C78.749 32.219 78.7099 32.4926 78.6578 32.7532C78.6317 32.7792 78.6187 32.8183 78.6187 32.8704C78.6578 32.4405 78.6578 31.9715 78.6969 31.5807V31.5416C78.6969 31.4374 78.6969 31.3592 78.6969 31.3071C78.6969 31.2811 78.6969 31.255 78.6969 31.2289V31.0335C78.6578 30.799 78.6578 30.6427 78.6578 30.3691C78.6187 30.0955 78.5796 29.9392 78.5796 29.7829C78.5796 29.7568 78.5796 29.7438 78.5796 29.7438C78.5796 29.7177 78.5796 29.6917 78.5796 29.6656C78.5796 29.6396 78.5796 29.6135 78.5796 29.5875C78.5796 29.5614 78.5796 29.5223 78.5796 29.4702V29.2357C78.5796 29.1836 78.5796 29.1315 78.5796 29.0794C78.5796 28.9491 78.5796 28.8188 78.5796 28.6886C78.5796 27.7115 78.5015 26.8126 78.4233 25.8355C78.3842 25.3665 78.3842 25.0148 78.1888 24.5067C78.0325 24.194 77.7589 23.4515 77.5635 23.1388C77.5244 23.2561 77.1726 24.155 77.1726 24.2722C77.1726 24.2983 77.1726 24.3374 77.1726 24.3895C77.2117 24.5458 77.2508 24.7412 77.2899 24.8585C77.4072 25.7964 77.4853 26.6953 77.5635 27.6724C77.5635 27.7245 77.5635 27.7897 77.5635 27.8678C77.5895 28.1805 77.6026 28.4931 77.6026 28.8058C77.6026 28.9231 77.5244 29.1185 77.3681 29.353C76.9772 29.9783 76.1565 30.9944 75.6484 31.5416C75.5182 31.6719 75.4139 31.7761 75.3358 31.8543C75.3097 31.8543 75.2967 31.8543 75.2967 31.8543C75.2706 31.8543 75.2576 31.8412 75.2576 31.8152C75.2055 31.737 75.1404 31.6458 75.0622 31.5416C74.9059 31.3071 74.7495 31.0335 74.6323 30.799C74.4759 30.6427 74.3587 30.4473 74.2024 30.291C74.1633 30.2128 73.9679 30.0174 73.8897 29.9001C73.8636 29.848 73.8636 29.8089 73.8897 29.7829C73.8897 29.7438 74.046 29.5484 74.2414 29.353C74.4369 29.0794 74.7104 28.8058 74.7495 28.7276C75.0622 28.415 75.3358 28.0632 75.6093 27.7506C76.1565 27.008 76.3519 26.8517 76.391 26.4999C76.391 26.3045 76.3519 26.0309 76.2347 25.5229C76.1174 24.7412 76.0002 23.9986 75.8048 23.1779C75.6875 22.6698 74.2805 21.4973 73.8897 21.0674C73.7334 21.2238 73.3425 21.9663 73.1862 22.2008C72.7563 22.9434 72.2873 23.6078 71.7792 24.3113C71.6229 24.5067 71.4275 24.624 71.5057 24.8585C71.7402 25.8355 71.8965 26.8908 72.0528 27.8287C72.0528 27.9069 72.0528 27.972 72.0528 28.0242C72.0137 28.1805 71.9356 28.2196 71.7402 28.415C71.5057 28.6495 71.193 29.0403 70.8803 29.353C70.6849 29.5484 70.4504 29.7829 70.2159 29.9001C70.2159 29.861 70.1768 29.5875 70.1378 29.353C70.1378 29.0794 70.0987 28.8449 70.0987 28.7276C69.9814 27.5552 69.786 26.4218 69.4734 25.2493C69.3691 24.8845 69.2519 24.4807 69.1216 24.0377C68.9262 23.4515 69.0044 23.4124 68.4181 23.1779C67.8319 22.9434 66.7766 22.5135 66.2295 22.4353C66.0732 22.6307 65.7605 23.1388 65.6042 23.4124C64.9007 24.4676 64.7053 24.5849 64.7834 24.8585C64.7834 24.9757 64.8616 25.132 64.9398 25.3665C65.3306 26.4218 65.6042 27.477 65.7996 28.5713C65.8387 28.6886 65.8778 29.0012 65.9168 29.353C65.995 29.822 66.0732 30.4082 66.0732 30.6036C66.0732 30.6297 66.0732 30.6427 66.0732 30.6427C65.9559 30.6818 65.0179 30.33 64.8225 30.291C64.5489 30.2128 63.8064 29.9783 63.5719 30.0174C63.5328 29.822 63.4937 29.5484 63.4546 29.353V29.2748C63.142 27.7897 62.673 26.3827 62.0476 25.0148C62.0086 24.8975 61.9304 24.7803 61.8913 24.624C61.8522 24.5849 61.8131 24.5067 61.7741 24.4285C61.7741 24.3895 61.735 24.3504 61.735 24.3113C61.735 24.2722 62.9856 22.0054 63.1029 21.7709C63.2983 21.4583 63.4155 21.3019 63.4546 21.1456C63.4546 21.0283 63.4546 20.9502 63.3374 20.7939C62.9465 20.1294 62.5166 19.5432 62.0476 18.9179C61.8913 18.996 59.9372 18.7616 59.7418 18.9179C59.6636 18.957 58.8429 21.2628 58.7256 21.5364C58.3348 22.5917 58.6084 22.3572 57.6704 22.5135C56.4588 22.6698 55.2473 22.9434 54.1139 23.3342C53.8403 23.4124 53.6058 23.4906 53.3713 23.5687C53.1759 23.6469 52.8241 23.8032 52.6678 23.8814C52.4333 23.7251 52.277 23.4906 52.0425 23.3342C51.808 23.0607 50.7918 22.279 50.4792 21.9663C50.401 21.9142 50.3619 21.8751 50.3619 21.8491C51.1436 21.3019 53.723 20.4812 54.7001 20.2076L56.1462 19.895C56.3025 19.7777 56.6542 17.9017 56.8887 17.2764C56.8887 17.2504 56.9018 17.2113 56.9278 17.1592C56.6152 16.7293 54.9737 15.4786 54.3484 15.0878C54.2311 15.0096 53.9966 15.0878 53.8012 15.1269C52.1988 15.5568 50.5964 15.9476 49.0722 16.6902C48.994 16.7293 48.3296 16.8856 48.056 16.9637C47.9388 17.0028 46.9617 16.8465 46.8445 16.8074C45.3984 16.2212 43.9524 15.8694 42.5063 15.5568C41.8028 15.4004 41.8419 15.3223 41.3338 15.7131C40.5522 16.3775 39.8878 17.0028 39.2234 17.6672C39.2234 17.6933 39.2234 17.7454 39.2234 17.8236C39.3797 18.4098 39.7314 19.9731 39.8487 20.3639C40.005 20.403 40.3958 20.4421 40.5522 20.4812C41.2557 20.5984 41.9982 20.7939 42.6626 20.9893C43.5224 21.2238 44.4213 21.5364 45.2421 21.9273L45.3984 22.0445C45.3724 22.0706 45.3333 22.0966 45.2812 22.1227C45.0467 22.3572 44.3823 22.9434 44.2259 23.0997C43.9133 23.3733 43.4834 23.9205 43.1707 24.1159C42.3109 23.8032 41.4511 23.5687 40.5522 23.3342C40.0832 23.2561 39.6142 23.217 39.1843 23.1388C38.9889 23.0997 37.8945 23.0216 37.8555 22.9825C37.621 22.8262 36.9566 20.4812 36.683 19.7386C36.6439 19.6995 36.6048 19.6605 36.5266 19.6605C36.0967 19.6214 34.7288 19.6605 34.2989 20.1685L33.4391 21.6537C33.3219 21.8491 33.2828 21.8491 33.3609 21.9663C33.3609 21.9924 33.374 22.0315 33.4 22.0836L34.6898 24.7021C34.807 24.9757 34.8461 25.0539 34.8461 25.1711C34.807 25.3274 34.6898 25.4838 34.5334 25.9137C34.1817 26.8908 33.869 28.0632 33.7127 29.0794C33.6866 29.1576 33.6736 29.2488 33.6736 29.353C33.5954 29.7829 33.5954 30.4082 33.5173 30.7209C33.2437 30.8381 32.8138 30.9163 32.462 31.0726C32.2666 31.1508 31.6022 31.5025 31.4459 31.5025C31.4459 31.4244 31.4068 31.3071 31.4068 31.1117C31.4068 31.0596 31.4068 30.9944 31.4068 30.9163C31.4068 30.4864 31.4459 29.9001 31.5241 29.353C31.6022 28.5713 31.7195 27.8287 31.7976 27.5161C31.8758 27.2425 31.954 26.8908 32.0321 26.5781C32.0712 26.4218 32.2275 25.9919 32.2666 25.7183C32.2666 25.6662 32.2666 25.6271 32.2666 25.601C32.2666 25.5619 31.0551 23.4515 31.016 23.4124C30.4297 23.5687 29.8044 23.9596 29.2963 24.2331C29.0228 24.3504 28.8664 24.3895 28.7883 24.624C28.7101 24.9757 28.6319 25.2884 28.5538 25.6792C28.3193 27.008 28.1629 28.1023 28.0848 29.353C28.0848 29.6656 28.0718 30.0043 28.0457 30.3691C28.0457 30.3952 28.0587 30.4343 28.0848 30.4864V30.6427C28.0848 30.6427 28.0848 30.6557 28.0848 30.6818C28.0848 30.7078 28.0848 30.7469 28.0848 30.799C28.0848 30.8251 28.0718 30.8642 28.0457 30.9163C27.8503 30.8772 26.9514 29.7047 26.795 29.5093C26.7169 29.4311 26.6778 29.3921 26.6387 29.353C26.6127 29.3009 26.5866 29.2487 26.5605 29.1966C26.5605 29.1445 26.5605 29.0794 26.5605 29.0012C26.5996 28.6886 26.5996 28.3759 26.6387 28.0632C26.7169 27.1253 26.795 26.2264 27.0295 25.2493C27.1468 24.5849 27.4594 23.0997 27.733 22.4744C27.8894 22.1227 29.4136 21.341 29.7653 21.1456C30.1171 20.9893 30.5861 20.8329 30.7033 20.5984C30.9899 20.0252 31.3026 19.426 31.6413 18.8006C31.7195 18.7225 31.7976 18.6052 31.8367 18.488C31.8367 18.4359 31.8367 18.3968 31.8367 18.3707L31.3286 16.8856C30.8206 17.081 30.3516 17.2764 29.8044 17.55C29.2573 17.8236 28.8274 18.0971 28.2802 18.4489C28.0457 17.9799 27.9284 17.1201 27.8503 16.612C27.7721 16.2603 27.733 15.9867 27.694 15.7131C27.6679 15.5828 27.6549 15.4526 27.6549 15.3223C27.6158 15.1269 27.6549 14.9705 27.733 14.8533C28.0066 14.3452 29.5308 11.9612 29.9607 11.6876C29.9607 11.7136 29.9607 11.7657 29.9607 11.8439V12.0784C29.9607 12.1566 29.9607 12.2478 29.9607 12.352C29.9607 12.4041 29.9607 12.4562 29.9607 12.5083V12.7428C29.9868 12.7689 29.9998 12.808 29.9998 12.8601C29.9998 12.9382 29.9998 13.0294 29.9998 13.1336C30.0389 13.798 30.1171 14.6969 30.2734 14.9705C30.4297 14.9314 31.2505 14.5406 31.485 14.4234C31.8367 14.267 32.2666 14.1498 32.6575 13.9935C33.0092 13.9153 33.3609 13.4072 33.6345 13.0946C34.1817 12.4692 34.7288 11.9221 35.3542 11.3358C35.4323 11.2577 35.4714 11.2577 35.4714 11.2186C35.4714 11.1925 35.4714 11.1535 35.4714 11.1013C35.3932 10.5542 35.3542 9.96795 35.3542 9.38171C35.3542 9.30354 35.3542 9.22537 35.3542 9.14721V9.02996C35.3542 9.0039 35.3542 8.97785 35.3542 8.95179V8.91271C35.3542 8.91271 35.3542 8.89969 35.3542 8.87363C35.3542 8.84758 35.3542 8.83455 35.3542 8.83455C35.3542 8.63913 35.3542 8.36555 35.3932 8.13106C35.3672 8.105 35.3672 8.07895 35.3932 8.05289C35.3672 8.02684 35.3542 8.00078 35.3542 7.97473C35.3932 7.85748 35.3542 7.74023 35.3542 7.70115C34.6897 7.93565 33.9472 8.20922 33.2828 8.4828L32.6184 8.79547C32.6184 8.76941 32.6184 8.75638 32.6184 8.75638C32.5793 8.56097 32.6965 8.28739 32.7356 8.09198C32.7747 7.89656 32.7747 7.5839 33.0092 7.42757C34.0253 6.76316 36.3703 5.94243 37.4646 5.66885C37.8164 5.5516 38.6762 5.43435 38.9107 5.27802C39.8878 4.73086 40.9039 4.1837 41.9201 3.75379C42.5063 3.48021 42.2327 3.44114 42.4672 2.73765C42.4933 2.68554 42.5193 2.63342 42.5454 2.58131L42.389 2.54223C42.389 2.54223 42.3109 2.58131 42.2718 2.58131C40.4349 2.89397 39.3015 3.08939 37.4646 3.87104L35.9404 4.53545C36.0446 4.43123 36.1879 4.32701 36.3703 4.22278C36.4224 4.19673 36.4745 4.15765 36.5266 4.10554C36.5787 4.07949 36.6309 4.05343 36.683 4.02737C37.1129 3.75379 37.621 3.48021 38.129 3.24572C38.3114 3.16755 38.4808 3.08939 38.6371 3.01122C38.6892 2.98517 38.7413 2.95912 38.7934 2.93306C38.9237 2.88095 39.054 2.82884 39.1843 2.77673C39.1843 2.75067 39.1843 2.73765 39.1843 2.73765C39.4188 2.63343 39.6272 2.54223 39.8096 2.46406C39.8356 2.46406 39.8487 2.45104 39.8487 2.42498C40.1353 2.32076 40.3828 2.21654 40.5912 2.11232C40.6173 2.11232 40.6303 2.11232 40.6303 2.11232C40.9039 2.07324 41.2166 2.03415 41.3338 1.99507C41.8549 1.8648 42.376 1.76057 42.8971 1.68241C43.5224 1.56516 44.1478 1.487 44.8122 1.40883C45.203 1.36975 46.1801 1.29158 46.4927 1.33067L46.4537 1.52608L46.2192 2.26865C46.2192 2.34681 46.2192 2.34682 46.2192 2.42498L46.1801 2.6204C46.1801 2.6204 46.1931 2.6204 46.2192 2.6204C46.4927 2.65948 47.6652 2.69856 48.2124 2.77673C48.4078 2.81581 48.6814 2.85489 48.8768 2.85489C49.3067 2.77672 49.7757 2.65948 50.2447 2.58131L51.6516 2.3859L51.8861 1.17434C52.3161 0.978925 55.4818 1.17433 55.9507 1.21342C56.9278 1.2525 58.3739 1.487 59.39 1.72149C59.5073 1.76058 59.6636 1.83874 59.8199 1.79966C59.8199 1.82571 59.8199 1.82571 59.8199 1.79966C59.859 1.79966 59.8981 1.79966 59.8981 1.79966C59.8981 1.7736 59.8851 1.73452 59.859 1.68241C59.833 1.6303 59.8069 1.59122 59.7808 1.56517C59.9632 1.61728 60.1326 1.66938 60.2889 1.72149C60.4453 1.7736 60.5886 1.82571 60.7188 1.87782C60.9794 1.98204 61.2399 2.08626 61.5005 2.19049C61.6047 2.2426 61.7089 2.28168 61.8131 2.30773C61.8392 2.33379 61.8653 2.34682 61.8913 2.34682C61.9695 2.37287 62.0476 2.41195 62.1258 2.46406C62.23 2.51617 62.3473 2.56829 62.4776 2.6204C62.5557 2.64645 62.6339 2.68554 62.712 2.73765C62.9205 2.81581 63.142 2.907 63.3765 3.01122C63.4025 3.03728 63.4416 3.06333 63.4937 3.08939V3.12847V3.16755C63.4937 3.20664 63.4937 3.20663 63.4937 3.24572C63.5328 3.36297 63.5719 3.48021 63.5719 3.63654C63.3374 3.59746 62.8684 3.40205 62.6339 3.32389C61.6177 2.97214 60.797 2.77673 59.7418 2.54223C59.1946 2.42498 56.3807 1.99507 55.7553 2.07324C55.6772 2.19048 55.6772 2.42498 55.6772 2.58131C55.6381 2.81581 55.5599 2.97214 55.599 3.12847L57.5531 3.94921C57.9049 4.10554 58.2175 4.22279 58.5693 4.37912C58.7256 4.49637 58.921 4.61361 59.0383 4.6527C59.1555 4.6527 59.3509 4.69178 59.5854 4.69178C60.328 4.80903 60.9533 4.88719 61.6177 5.04352C62.2431 5.16077 62.9856 5.35619 63.65 5.5516C65.6823 6.17692 65.8387 6.09876 67.5192 7.66206C69.0825 9.02996 70.1378 10.1634 71.4666 11.9221C71.5447 12.0393 72.4436 12.6646 72.6391 12.821C72.8345 12.9773 73.0299 13.1727 73.2644 13.3291C73.4207 13.4463 73.7334 13.7981 73.8506 13.8762C73.8897 13.7981 73.8897 13.6417 73.8897 13.4854C73.8897 13.4593 73.8897 13.4333 73.8897 13.4072C73.8897 13.3681 73.8897 13.3291 73.8897 13.3291V13.29C73.8897 13.1727 73.8897 13.0946 73.8897 13.0946C73.8506 12.5865 73.7725 12.6256 73.4598 12.1957C72.0528 10.1634 70.4113 8.36555 68.5745 6.72408C68.3009 6.52867 68.0273 6.33326 67.9101 6.05968C67.884 5.95546 67.8319 5.85123 67.7537 5.74701C68.0664 5.98151 68.366 6.21601 68.6526 6.4505C68.7568 6.52867 68.8611 6.61986 68.9653 6.72408C69.2519 6.95858 69.5385 7.19308 69.8251 7.42757C70.0596 7.66207 70.3071 7.89656 70.5677 8.13106L70.6458 8.20923C70.8803 8.44372 71.1148 8.69124 71.3493 8.95179C71.4796 9.05602 71.5968 9.17326 71.7011 9.30354C71.9095 9.53803 72.1049 9.75951 72.2873 9.96795C72.3134 9.96795 72.3264 9.98097 72.3264 10.007C72.5088 10.2155 72.6781 10.4239 72.8345 10.6324C73.0169 10.8668 73.1992 11.1013 73.3816 11.3358C73.4598 11.414 73.5249 11.5052 73.577 11.6094C73.7334 11.8179 73.8767 12.0263 74.007 12.2347L73.3816 11.5313C73.7334 12.0002 74.1242 12.5083 74.4369 13.0555C74.5932 13.2639 74.7365 13.4724 74.8668 13.6808L75.0231 13.9935C75.4921 14.8533 75.8829 15.2832 75.922 16.2993C75.922 16.3254 75.922 16.3645 75.922 16.4166C75.922 16.8074 76.0392 16.8465 76.2347 17.3546C76.5864 18.1753 76.8209 18.957 77.2508 19.7386C77.4462 20.1294 77.6416 20.5984 77.8371 20.9111C77.8631 20.859 77.8761 20.8069 77.8761 20.7548V20.7157C77.8761 20.4812 77.798 20.1685 77.7589 19.934C77.7589 19.8559 77.7589 19.8168 77.7589 19.7777C77.9152 20.0904 78.1888 21.1456 78.3061 21.5755C78.6969 23.2951 78.9314 25.0539 79.0095 26.8126C79.0356 26.9429 79.0486 27.0862 79.0486 27.2425C79.0486 27.3728 79.0486 27.5161 79.0486 27.6724C79.0486 27.8548 79.0486 28.0372 79.0486 28.2196ZM42.1936 13.9153L42.1155 11.7267L41.9591 7.50574C41.9591 7.11491 41.6074 6.84133 41.2556 6.88041L39.9268 7.03674C39.8747 7.03674 39.8356 7.04977 39.8096 7.07582C39.6142 7.19307 39.4969 7.42757 39.4969 7.66206L39.7314 13.9935C39.7314 14.3452 40.0441 14.6188 40.4349 14.6188L41.7246 14.5406C41.7768 14.5406 41.8289 14.5406 41.881 14.5406C42.0764 14.3843 42.1936 14.1889 42.1936 13.9153ZM52.4333 10.5933C52.4333 8.7173 50.9872 7.11491 49.0331 6.88041C46.9226 6.64591 45.0076 8.09198 44.7731 10.1634C44.7731 10.2155 44.7601 10.2545 44.734 10.2806V10.3197C44.7731 12.1957 46.2192 13.798 48.1733 14.0325C50.2447 14.3061 52.1597 12.821 52.3942 10.7887C52.4203 10.7366 52.4333 10.6845 52.4333 10.6324V10.5933ZM57.2014 13.3291L56.5761 6.95857C56.537 6.56775 56.1852 6.29417 55.7944 6.37233L54.5047 6.60683C54.4786 6.63289 54.4526 6.64592 54.4265 6.64592C54.2311 6.80225 54.1139 7.03674 54.1529 7.27124L54.7783 13.5636C54.8173 13.9153 55.13 14.1889 55.5208 14.1498L56.8106 13.9935C56.8627 13.9674 56.9018 13.9544 56.9278 13.9544C57.1232 13.7981 57.2405 13.5636 57.2014 13.3291ZM64.9007 13.0164C65.057 13.0555 65.1352 13.0946 65.2915 13.0946L67.5974 13.798C67.6755 13.6417 67.6756 13.5245 67.7537 13.3681L68.0273 12.5474C68.0664 12.3911 68.1445 12.2347 68.1836 12.0784C68.2227 11.9221 68.5354 10.9059 68.6135 10.5151C68.6135 10.4369 68.6135 10.3848 68.6135 10.3588C68.34 9.92886 66.0341 7.74023 65.6823 7.62298C64.6662 7.23216 63.8845 7.07583 62.9075 6.84133C62.712 6.80225 62.5948 6.72408 62.4776 6.80225C62.4776 7.19307 61.7741 9.8507 61.6568 10.3197L61.6959 10.3588L63.1029 11.6094C63.3765 11.8439 64.3535 12.8991 64.5099 12.9382C64.588 12.9773 64.7834 12.9773 64.9007 13.0164ZM75.453 18.488C75.1794 17.7063 74.7495 16.8465 74.3978 16.143C74.1633 15.674 71.8183 13.8762 71.3102 13.6808L71.2321 13.6417L70.6068 15.4004C70.4895 15.7131 69.9814 16.9247 69.8251 17.1592L67.9491 16.3775C67.5583 16.2603 66.3467 15.8304 66.0341 15.7913C65.995 15.8694 65.3306 17.3546 65.2915 17.4718C65.3176 17.4979 65.3306 17.5239 65.3306 17.55C65.7214 18.0581 65.995 18.488 66.3077 19.0351C66.4249 19.2305 66.6594 19.6995 66.8157 19.7386C68.6135 20.3249 68.5354 20.3249 70.2941 21.1065C70.4895 20.872 71.6229 18.7225 71.8574 18.2926C71.9356 18.0971 72.1701 17.4718 72.2873 17.3546C72.8736 17.5891 74.6323 19.1915 75.1404 19.7386C75.2185 19.6214 75.3748 19.0742 75.453 18.8788C75.4791 18.8267 75.4921 18.7876 75.4921 18.7616C75.5312 18.6834 75.5312 18.6052 75.453 18.488ZM41.0993 1.91691C41.0472 1.94296 40.9951 1.95599 40.943 1.95599C40.9951 1.92994 41.0472 1.91691 41.0993 1.91691Z" fill="#1F1E4F"/>
<path d="M74.0071 12.0783L73.3818 11.3357C73.9289 12.1174 74.5542 13.0163 75.0232 13.837C75.5313 14.6968 75.8831 15.1267 75.9221 16.182V16.2992C75.8831 15.2831 75.4922 14.8531 75.0232 13.9933C74.5542 13.1726 73.9289 12.2737 73.3818 11.5311L74.0071 12.2346C72.9128 10.515 71.2322 8.71717 69.8252 7.42744C69.1218 6.80212 68.4183 6.25496 67.7539 5.74688C67.4412 5.31697 66.855 4.96523 66.5423 4.76981C65.8779 4.30082 64.1973 3.24558 63.4938 3.05017C63.4678 3.05017 63.4678 3.0632 63.4938 3.08926C62.2692 2.48999 61.0316 1.98192 59.781 1.56503C59.5856 1.36962 59.2729 1.33054 59.0384 1.25237C59.0384 1.25237 58.374 1.09604 57.436 0.900623C57.2536 0.874568 57.0191 0.82246 56.7325 0.744294C56.6023 0.718239 56.472 0.692185 56.3417 0.66613C56.2896 0.66613 56.2505 0.66613 56.2245 0.66613C54.8957 0.392551 53.3714 0.118971 52.3944 0.158054C51.8863 0.158054 51.3 0.118971 50.7138 0.158054C50.6356 0.158054 50.5705 0.158054 50.5184 0.158054C49.9452 0.158054 49.3589 0.184108 48.7597 0.236218C47.9389 0.236218 46.0239 0.353466 45.4767 0.627045C45.4507 0.6531 45.4246 0.679154 45.3986 0.705209C43.8743 1.01787 42.3892 1.44778 40.9431 1.99494C40.865 2.02099 40.7607 2.06008 40.6305 2.11219C40.6305 2.11219 40.6174 2.11219 40.5914 2.11219C40.5914 2.13824 40.5914 2.15127 40.5914 2.15127C39.4971 2.62027 36.7222 3.83183 35.9405 4.53532L35.7451 4.61348C35.9014 4.1054 38.52 2.85476 40.0051 2.22944C40.4351 2.03402 40.7868 1.87769 40.9431 1.83861C44.2261 0.587965 47.7044 -0.0373575 51.0655 0.00172524C55.8727 0.00172524 60.9535 1.25237 65.3307 3.94907C66.8159 4.84798 68.301 5.90321 69.8252 7.2711C71.2322 8.56083 72.9128 10.3586 74.0071 12.0783Z" fill="#1F1E4F"/>
<path d="M29.8435 27.8668C30.547 28.1013 31.3286 27.5933 31.5631 26.7725C31.7976 25.9127 31.4068 25.092 30.7033 24.8966C29.9607 24.7011 29.1791 25.1701 28.9446 26.03C28.7101 26.8507 29.1009 27.6714 29.8435 27.8668Z" fill="#EE7823"/>
<path d="M67.402 27.2811C68.2227 27.203 68.809 26.3822 68.6917 25.4442C68.6136 24.5063 67.871 23.8028 67.0503 23.92C66.2295 23.9982 65.6433 24.8189 65.7605 25.7569C65.8387 26.6558 66.5813 27.3593 67.402 27.2811Z" fill="#EE7823"/>
<path d="M74.3979 26.9286C75.1404 26.8504 75.6485 26.0297 75.5704 25.0917C75.4531 24.1928 74.7887 23.4893 74.0461 23.5675C73.3426 23.6456 72.8346 24.4664 72.9127 25.3653C73.03 26.3033 73.6944 27.0067 74.3979 26.9286Z" fill="#EE7823"/>
<path d="M41.0602 19.3861C41.7637 20.0895 42.858 20.1677 43.4442 19.5424C44.0695 18.9561 43.9914 17.8618 43.2488 17.1583C42.5453 16.4549 41.4901 16.4158 40.8648 17.002C40.2785 17.6273 40.3567 18.6826 41.0602 19.3861Z" fill="#EE7823"/>
<path d="M31.1724 13.0936C31.7195 13.6408 32.7357 13.4454 33.4783 12.7028C34.2208 11.9602 34.3772 10.9441 33.83 10.3969C33.2828 9.84976 32.2276 10.0452 31.5241 10.7877C30.7815 11.5303 30.6252 12.5465 31.1724 13.0936Z" fill="#EE7823"/>
<path d="M37.5426 4.84742C37.699 5.19916 38.4806 5.23824 39.3014 4.92558C40.1221 4.57384 40.6693 4.02668 40.552 3.67494C40.3957 3.32319 39.614 3.28411 38.7933 3.59677C37.9726 3.94852 37.3863 4.49567 37.5426 4.84742Z" fill="#EE7823"/>
<path d="M57.6314 3.16695C57.5142 3.51869 58.2177 4.02677 59.1557 4.30035C60.1327 4.57393 60.9926 4.49576 61.0707 4.10494C61.188 3.75319 60.4845 3.20603 59.5465 2.97153C58.5694 2.69796 57.7096 2.77612 57.6314 3.16695Z" fill="#EE7823"/>
<path d="M70.4895 9.53694C70.255 9.69327 70.5285 10.514 71.1539 11.2957C71.7401 12.0773 72.4045 12.5854 72.639 12.4291C72.8735 12.2336 72.5999 11.452 72.0137 10.6703C71.4274 9.8496 70.724 9.34153 70.4895 9.53694Z" fill="#EE7823"/>
<path d="M52.5897 18.8782C53.2932 19.5817 54.3484 19.6599 54.9737 19.0346C55.56 18.4483 55.4818 17.354 54.7783 16.6505C54.0748 15.947 52.9805 15.908 52.3943 16.4942C51.7689 17.1195 51.8471 18.1748 52.5897 18.8782Z" fill="#EE7823"/>
<path d="M64.3926 12.2341C65.4478 12.8985 66.6984 12.9375 67.1284 12.2341C67.5583 11.5697 67.0111 10.4753 65.9168 9.77185C64.8616 9.10745 63.6109 9.06837 63.181 9.77185C62.7511 10.4363 63.2982 11.5306 64.3926 12.2341Z" fill="#EE7823"/>
<path d="M49.8147 9.02955C50.2837 9.49854 50.4792 10.1239 50.3619 10.671C50.3228 10.9837 50.1665 11.2573 49.932 11.4918C49.3067 12.1562 48.1733 12.1171 47.4698 11.4136C47.0399 10.9837 46.8445 10.4365 46.9226 9.88937C46.9617 9.53762 47.079 9.22496 47.3525 8.95138C48.0169 8.28698 49.1113 8.32606 49.8147 9.02955Z" fill="#EE7823"/>
<path d="M2.29038 70.8584C1.74322 70.6239 1.35239 70.4675 1.35239 70.0767C1.35239 69.764 1.62597 69.5296 2.05588 69.5296C2.36854 69.5296 2.68121 69.6859 2.87662 69.9986L3.34561 69.725C3.07203 69.2169 2.52488 69.0215 2.09497 69.0215C1.31331 69.0215 0.805232 69.4905 0.805232 70.0767C0.805232 70.8584 1.39147 71.0538 1.93863 71.2883C2.48579 71.5228 2.83754 71.64 2.83754 72.0699C2.83754 72.3435 2.52488 72.6171 2.05588 72.6171C1.66506 72.6171 1.35239 72.4217 1.15697 72.0308L0.687988 72.3826C0.961567 72.8907 1.46964 73.1252 2.05588 73.1252C2.9157 73.1252 3.38469 72.6171 3.38469 72.0308C3.38469 71.3664 2.9157 71.1319 2.29038 70.8584Z" fill="#1F1E4F"/>
<path d="M7.87887 72.2653L7.48805 71.9136C7.21447 72.3044 6.78455 72.578 6.23739 72.578C5.37757 72.578 4.71317 71.9527 4.71317 71.0929C4.71317 70.233 5.3385 69.5686 6.19832 69.5686C6.78456 69.5686 7.17538 69.8422 7.40988 70.194L7.83979 69.8422C7.52713 69.4123 6.97998 69.0215 6.19832 69.0215C5.06492 69.0215 4.16602 69.9204 4.16602 71.0929C4.16602 72.2653 5.06491 73.1642 6.23739 73.1642C6.94088 73.1642 7.52713 72.7734 7.87887 72.2653Z" fill="#1F1E4F"/>
<path d="M9.36405 73.0861V69.0996H8.81689V73.0861H9.36405Z" fill="#1F1E4F"/>
<path d="M13.1944 69.6077V69.0996H10.6931V73.0861H13.2335V72.578H11.2403V71.3273H12.8427V70.8192H11.2403V69.6077H13.1944Z" fill="#1F1E4F"/>
<path d="M17.5324 69.0996H16.9853V72.0699L14.7576 69.0996H14.2886V73.0861H14.8357V70.0767L17.0634 73.0861H17.5324V69.0996Z" fill="#1F1E4F"/>
<path d="M22.3396 72.2653L21.9097 71.9136C21.6361 72.3044 21.2453 72.578 20.659 72.578C19.8383 72.578 19.1739 71.9527 19.1739 71.0929C19.1739 70.233 19.7992 69.5686 20.62 69.5686C21.2062 69.5686 21.6361 69.8422 21.8706 70.194L22.3005 69.8422C21.9878 69.4123 21.4016 69.0215 20.62 69.0215C19.5256 69.0215 18.5876 69.9204 18.5876 71.0929C18.5876 72.2653 19.5256 73.1642 20.659 73.1642C21.4016 73.1642 21.9878 72.7734 22.3396 72.2653Z" fill="#1F1E4F"/>
<path d="M25.7398 69.6077V69.0996H23.2385V73.0861H25.7789V72.578H23.8248V71.3273H25.4272V70.8192H23.8248V69.6077H25.7398Z" fill="#1F1E4F"/>
<path fill-rule="evenodd" clip-rule="evenodd" d="M31.7585 73.0861H31.055L30.7423 72.7343C30.4296 72.9688 30.0388 73.1252 29.5698 73.1252C28.8273 73.1252 28.1628 72.7343 28.1628 72.0308C28.1628 71.5619 28.4755 71.2492 29.0227 70.8974C28.7491 70.5848 28.5537 70.3503 28.5537 69.9986C28.5537 69.5686 28.8663 69.1387 29.4135 69.0606C29.4917 69.0345 29.5568 69.0215 29.6089 69.0215C29.6871 69.0215 29.7652 69.0345 29.8434 69.0606C30.3515 69.1387 30.7032 69.5686 30.7032 69.9595C30.7032 70.3894 30.4296 70.6629 29.8043 71.0147L30.7032 71.9527C30.8595 71.64 30.9377 71.2883 30.8986 70.8974H31.4458C31.524 71.4446 31.3676 71.9527 31.094 72.3435L31.7585 73.0861ZM29.1008 69.9986C29.1008 70.2721 29.2181 70.4285 29.4917 70.663C29.9216 70.4285 30.1561 70.233 30.1561 69.9986C30.1561 69.7641 29.9607 69.5296 29.6089 69.5296C29.2962 69.5296 29.1008 69.7641 29.1008 69.9986ZM30.3906 72.3826L29.3744 71.3274C28.9836 71.5228 28.7491 71.7573 28.7491 72.0699C28.7491 72.4608 29.179 72.6562 29.6089 72.6562C29.9216 72.6562 30.1561 72.5389 30.3906 72.3826Z" fill="#1F1E4F"/>
<path d="M36.4483 69.0996H33.478V69.6077H34.6896V73.0861H35.2367V69.6077H36.4483V69.0996Z" fill="#1F1E4F"/>
<path d="M37.8946 71.3273H39.497V70.8192H37.8946V69.6077H39.8096V69.0996H37.3474V73.0861H39.8878V72.578H37.8946V71.3273Z" fill="#1F1E4F"/>
<path d="M42.5846 72.578C41.7638 72.578 41.0994 71.9527 41.0994 71.0929C41.0994 70.233 41.7248 69.5686 42.5455 69.5686C43.1317 69.5686 43.5616 69.8422 43.7961 70.194L44.226 69.8422C43.9134 69.4123 43.3271 69.0215 42.5455 69.0215C41.4512 69.0215 40.5132 69.9204 40.5132 71.0929C40.5132 72.2653 41.4512 73.1642 42.5846 73.1642C43.3271 73.1642 43.9134 72.7734 44.2651 72.2653L43.8352 71.9136C43.5616 72.3044 43.1708 72.578 42.5846 72.578Z" fill="#1F1E4F"/>
<path d="M45.1641 69.0996V73.0861H45.7503V71.3273H47.8608V73.0861H48.4079V69.0996H47.8608V70.8192H45.7503V69.0996H45.1641Z" fill="#1F1E4F"/>
<path d="M52.5114 73.0861H53.0195V69.0996H52.4724V72.0699L50.2446 69.0996H49.7366V73.0861H50.3228V70.0767L52.5114 73.0861Z" fill="#1F1E4F"/>
<path fill-rule="evenodd" clip-rule="evenodd" d="M58.1784 71.0929C58.1784 72.2653 57.2795 73.1252 56.1461 73.1252C54.9736 73.1252 54.0747 72.2653 54.0747 71.0929C54.0747 69.9985 54.8564 69.1778 55.8725 69.0606C55.9507 69.0345 56.0419 69.0215 56.1461 69.0215C56.2243 69.0215 56.3154 69.0345 56.4197 69.0606C57.4358 69.1778 58.1784 69.9985 58.1784 71.0929ZM57.6312 71.0929C57.6312 70.194 56.9277 69.5686 56.1461 69.5686C55.3253 69.5686 54.6609 70.194 54.6609 71.0929C54.6609 71.9527 55.3253 72.578 56.1461 72.578C56.9277 72.578 57.6312 71.9527 57.6312 71.0929Z" fill="#1F1E4F"/>
<path d="M59.2336 69.0996V73.0861H61.5786V72.578H59.8199V69.0996H59.2336Z" fill="#1F1E4F"/>
<path fill-rule="evenodd" clip-rule="evenodd" d="M66.0732 71.0929C66.0732 72.2653 65.1352 73.1252 64.0018 73.1252C62.8293 73.1252 61.9304 72.2653 61.9304 71.0929C61.9304 69.9985 62.7121 69.1778 63.7282 69.0606C63.8064 69.0345 63.8976 69.0215 64.0018 69.0215C64.08 69.0215 64.1712 69.0345 64.2754 69.0606C65.2915 69.1778 66.0732 69.9985 66.0732 71.0929ZM65.4869 71.0929C65.4869 70.194 64.8225 69.5686 64.0018 69.5686C63.1811 69.5686 62.5167 70.194 62.5167 71.0929C62.5167 71.9527 63.1811 72.578 64.0018 72.578C64.8225 72.578 65.4869 71.9527 65.4869 71.0929Z" fill="#1F1E4F"/>
<path d="M69.0827 71.4837H70.0598V71.9918C69.8253 72.3435 69.4344 72.578 68.8482 72.578C68.0275 72.578 67.4021 71.9527 67.4021 71.0929C67.4021 70.233 68.0275 69.5686 68.8482 69.5686C69.4344 69.5686 69.8253 69.8422 70.0989 70.194L70.5288 69.8422C70.177 69.4123 69.6299 69.0215 68.8482 69.0215C67.7148 69.0215 66.855 69.9204 66.855 71.0929C66.855 72.2653 67.7148 73.1642 68.8482 73.1642C69.6299 73.1642 70.2161 72.7343 70.6069 72.2263V71.0147H69.0827V71.4837Z" fill="#1F1E4F"/>
<path d="M72.7953 70.7411L71.7401 69.0996H71.0757L72.4827 71.2882V73.0861H73.0689V71.2882L74.4759 69.0996H73.8115L72.7953 70.7411Z" fill="#1F1E4F"/>
<path d="M102.108 77.5419L101.052 75.9004H100.388L101.795 78.089V79.8868H102.381V78.089L103.788 75.9004H103.124L102.108 77.5419Z" fill="#1F1E4F"/>
<path fill-rule="evenodd" clip-rule="evenodd" d="M79.4006 70.3503C79.4006 71.0147 78.8143 71.6009 78.1108 71.6009H77.2901V73.0861H76.7039V69.0996H78.1108C78.8143 69.0996 79.4006 69.6468 79.4006 70.3503ZM78.8143 70.3503C78.8143 69.9204 78.4626 69.6077 78.0327 69.6077H77.2901V71.0928H78.0327C78.4626 71.0928 78.8143 70.7802 78.8143 70.3503Z" fill="#1F1E4F"/>
<path fill-rule="evenodd" clip-rule="evenodd" d="M83.2695 73.0861H82.6832L82.2924 71.9917H80.5728L80.1429 73.0861H79.5957L81.1199 69.0996H81.7062L83.2695 73.0861ZM82.097 71.4446L81.4326 69.6858L80.7682 71.4446H82.097Z" fill="#1F1E4F"/>
<path fill-rule="evenodd" clip-rule="evenodd" d="M86.0836 71.4446L86.9043 73.0861H86.279L85.4973 71.4837H84.6375V73.0861H84.0903V69.0996H85.6927C86.3962 69.0996 86.9434 69.5686 86.9434 70.3112C86.9434 70.8583 86.5916 71.2882 86.0836 71.4446ZM85.6146 71.0147C86.0054 71.0147 86.3571 70.7411 86.3571 70.2721C86.3571 69.8422 86.0054 69.6077 85.6146 69.6077H84.6375V71.0147H85.6146Z" fill="#1F1E4F"/>
<path d="M87.9985 69.0996V73.0861H88.5848V71.8745L89.2101 71.1319L90.5389 73.0861H91.2033L89.5618 70.7411L91.0079 69.0996H90.3044L88.5848 71.0928V69.0996H87.9985Z" fill="#1F1E4F"/>
<path d="M94.9944 71.3664H96.5186V70.8583H94.9944V69.6077H96.7532V69.0996H94.4473V73.0861H94.9944V71.3664Z" fill="#1F1E4F"/>
<path fill-rule="evenodd" clip-rule="evenodd" d="M101.521 71.0929C101.521 72.2653 100.622 73.1252 99.4498 73.1252C98.3164 73.1252 97.3784 72.2653 97.3784 71.0929C97.3784 69.9985 98.1601 69.1778 99.1762 69.0606C99.2804 69.0345 99.3716 69.0215 99.4498 69.0215C99.554 69.0215 99.6452 69.0345 99.7234 69.0606C100.74 69.1778 101.521 69.9985 101.521 71.0929ZM100.935 71.0929C100.935 70.194 100.271 69.5686 99.4498 69.5686C98.6291 69.5686 97.9647 70.194 97.9647 71.0929C97.9647 71.9527 98.6291 72.578 99.4498 72.578C100.271 72.578 100.935 71.9527 100.935 71.0929Z" fill="#1F1E4F"/>
<path fill-rule="evenodd" clip-rule="evenodd" d="M104.57 71.4446L105.39 73.0861H104.765L103.983 71.4837H103.124V73.0861H102.576V69.0996H104.179C104.882 69.0996 105.429 69.5686 105.429 70.3112C105.429 70.8583 105.078 71.2882 104.57 71.4446ZM104.101 71.0147C104.491 71.0147 104.843 70.7411 104.843 70.2721C104.843 69.8422 104.491 69.6077 104.101 69.6077H103.124V71.0147H104.101Z" fill="#1F1E4F"/>
<path d="M1.11772 77.9719H2.72011V77.4638H1.11772V76.2131H3.03277V75.7441H0.570557V79.6915H3.11093V79.1834H1.11772V77.9719Z" fill="#1F1E4F"/>
<path d="M4.47882 75.7441H3.89258V79.6915H6.23754V79.2225H4.47882V75.7441Z" fill="#1F1E4F"/>
<path d="M7.44901 77.9719H9.0514V77.4638H7.44901V76.2131H9.36406V75.7441H6.90186V79.6915H9.44223V79.1834H7.44901V77.9719Z" fill="#1F1E4F"/>
<path d="M11.9044 79.2225C11.0446 79.2225 10.4192 78.5972 10.4192 77.6983C10.4192 76.8385 11.0446 76.2132 11.8653 76.2132C12.4516 76.2132 12.8424 76.4868 13.116 76.8385L13.5068 76.4867C13.2332 76.0568 12.647 75.666 11.8653 75.666C10.7319 75.666 9.83301 76.5258 9.83301 77.6983C9.83301 78.9099 10.771 79.7697 11.9044 79.7697C12.647 79.7697 13.2332 79.418 13.5459 78.9099L13.155 78.5581C12.8815 78.949 12.4906 79.2225 11.9044 79.2225Z" fill="#1F1E4F"/>
<path d="M13.8196 76.2131H14.9921V79.6915H15.5783V76.2131H16.7899V75.7441H13.8196V76.2131Z" fill="#1F1E4F"/>
<path fill-rule="evenodd" clip-rule="evenodd" d="M19.4085 78.0891L20.2292 79.6915H19.6039L18.8223 78.1282H18.0015V79.6915H17.4153V75.7441H19.0177C19.7212 75.7441 20.2683 76.2131 20.2683 76.9557C20.2683 77.5029 19.9166 77.8937 19.4085 78.0891ZM18.9786 77.6592C19.3694 77.6592 19.6821 77.3856 19.6821 76.9166C19.6821 76.4867 19.3694 76.2131 18.9786 76.2131H18.0015V77.6592H18.9786Z" fill="#1F1E4F"/>
<path fill-rule="evenodd" clip-rule="evenodd" d="M24.9191 77.6983C24.9191 78.8708 24.0202 79.7697 22.8868 79.7697C21.7143 79.7697 20.8154 78.8708 20.8154 77.6983C20.8154 76.5258 21.7143 75.666 22.8868 75.666C24.0202 75.666 24.9191 76.5258 24.9191 77.6983ZM24.3329 77.6983C24.3329 76.8385 23.6685 76.2132 22.8868 76.2132C22.0661 76.2132 21.4017 76.8385 21.4017 77.6983C21.4017 78.5972 22.0661 79.2225 22.8868 79.2225C23.6685 79.2225 24.3329 78.5972 24.3329 77.6983Z" fill="#1F1E4F"/>
<path d="M28.4365 78.7144L26.2478 75.7441H25.7397V79.6915H26.326V76.7212L28.5146 79.6915H29.0227V75.7441H28.4365V78.7144Z" fill="#1F1E4F"/>
<path d="M30.1172 79.6915H30.6643V75.7441H30.1172V79.6915Z" fill="#1F1E4F"/>
<path d="M33.5565 79.2225C32.6967 79.2225 32.0713 78.5972 32.0713 77.6983C32.0713 76.8385 32.6967 76.2132 33.5174 76.2132C34.1037 76.2132 34.4945 76.4868 34.7681 76.8385L35.1589 76.4867C34.8462 76.0568 34.2991 75.666 33.5174 75.666C32.384 75.666 31.4851 76.5258 31.4851 77.6983C31.4851 78.9099 32.4231 79.7697 33.5565 79.7697C34.2991 79.7697 34.8462 79.418 35.198 78.9099L34.8071 78.5581C34.5336 78.949 34.1427 79.2225 33.5565 79.2225Z" fill="#1F1E4F"/>
<path d="M37.1519 77.4638C36.6439 77.2293 36.253 77.1121 36.253 76.7212C36.253 76.4086 36.5266 76.1741 36.9565 76.1741C37.2692 76.1741 37.5818 76.2913 37.7773 76.6431L38.2072 76.3304C37.9336 75.8614 37.4255 75.666 36.9565 75.666C36.2139 75.666 35.6668 76.135 35.6668 76.7212C35.6668 77.4638 36.2921 77.6983 36.8393 77.9328C37.3473 78.1673 37.6991 78.2846 37.6991 78.7145C37.6991 78.988 37.4255 79.2616 36.9565 79.2616C36.5657 79.2616 36.253 79.0662 36.0576 78.6754L35.5886 78.988C35.8231 79.4961 36.3703 79.7697 36.9174 79.7697C37.8163 79.7697 38.2853 79.2616 38.2853 78.6754C38.2853 78.011 37.8163 77.7765 37.1519 77.4638Z" fill="#1F1E4F"/>
<path fill-rule="evenodd" clip-rule="evenodd" d="M74.5932 79.8869H73.8897L73.577 79.5351C73.2644 79.8087 72.8344 79.965 72.4045 79.965C71.662 79.965 70.9976 79.5351 70.9976 78.8707C70.9976 78.3626 71.3102 78.05 71.8574 77.7373C71.5447 77.3856 71.3884 77.1511 71.3884 76.7993C71.3884 76.3303 71.7792 75.8223 72.4436 75.8223C73.108 75.8223 73.4988 76.2913 73.4988 76.7993C73.4988 77.1902 73.2253 77.4637 72.639 77.8155L73.5379 78.7535C73.6943 78.4799 73.7724 78.0891 73.7333 77.7373H74.2805C74.3196 78.2845 74.2023 78.7926 73.9288 79.1834L74.5932 79.8869ZM71.8965 76.7993C71.8965 77.0729 72.0528 77.2292 72.2873 77.4637C72.7563 77.1902 72.9517 77.0338 72.9517 76.7993C72.9517 76.5648 72.7563 76.3303 72.4436 76.3303C72.131 76.3303 71.8965 76.5648 71.8965 76.7993ZM73.1862 79.1834L72.2091 78.0891C71.8183 78.3236 71.5447 78.519 71.5447 78.8316C71.5447 79.2225 72.0137 79.4179 72.4045 79.4179C72.7172 79.4179 72.9908 79.3397 73.1862 79.1834Z" fill="#1F1E4F"/>
<path fill-rule="evenodd" clip-rule="evenodd" d="M42.8971 78.0891L43.7178 79.6915H43.0534L42.2717 78.1282H41.451V79.6915H40.8647V75.7441H42.4671C43.1706 75.7441 43.7178 76.2131 43.7178 76.9557C43.7178 77.5029 43.366 77.8937 42.8971 78.0891ZM42.4281 77.6592C42.8189 77.6592 43.1706 77.3856 43.1706 76.9166C43.1706 76.4867 42.8189 76.2131 42.4281 76.2131H41.451V77.6592H42.4281Z" fill="#1F1E4F"/>
<path d="M45.1248 77.9719H46.7272V77.4638H45.1248V76.2131H47.0399V75.7441H44.5776V79.6915H47.118V79.1834H45.1248V77.9719Z" fill="#1F1E4F"/>
<path d="M49.1893 77.4638C48.6421 77.2293 48.2513 77.1121 48.2513 76.7212C48.2513 76.4086 48.5249 76.1741 48.9939 76.1741C49.2675 76.1741 49.5801 76.2913 49.8146 76.6431L50.2445 76.3304C49.971 75.8614 49.4238 75.666 48.9939 75.666C48.2122 75.666 47.7042 76.135 47.7042 76.7212C47.7042 77.4638 48.2904 77.6983 48.8376 77.9328C49.3847 78.1673 49.7365 78.2846 49.7365 78.7145C49.7365 78.988 49.4238 79.2616 48.9548 79.2616C48.564 79.2616 48.2513 79.0662 48.0559 78.6754L47.5869 78.988C47.8605 79.4961 48.3686 79.7697 48.9548 79.7697C49.8146 79.7697 50.2836 79.2616 50.2836 78.6754C50.2836 78.011 49.8146 77.7765 49.1893 77.4638Z" fill="#1F1E4F"/>
<path d="M51.6516 77.9719H53.254V77.4638H51.6516V76.2131H53.5667V75.7441H51.1045V79.6915H53.6449V79.1834H51.6516V77.9719Z" fill="#1F1E4F"/>
<path fill-rule="evenodd" clip-rule="evenodd" d="M57.5922 79.6915H57.0451L56.6152 78.6363H54.9346L54.5047 79.6915H53.9185L55.4818 75.7441H56.068L57.5922 79.6915ZM56.4198 78.0891L55.7553 76.2913L55.0909 78.0891H56.4198Z" fill="#1F1E4F"/>
<path fill-rule="evenodd" clip-rule="evenodd" d="M60.2108 78.0891L60.9924 79.6915H60.3671L59.5854 78.1282H58.7647V79.6915H58.1785V75.7441H59.7808C60.4843 75.7441 61.0315 76.2131 61.0315 76.9557C61.0315 77.5029 60.6798 77.8937 60.2108 78.0891ZM59.7418 77.6592C60.1326 77.6592 60.4453 77.3856 60.4453 76.9166C60.4453 76.4867 60.1326 76.2131 59.7418 76.2131H58.7647V77.6592H59.7418Z" fill="#1F1E4F"/>
<path d="M63.65 79.2225C62.7902 79.2225 62.1649 78.5972 62.1649 77.6983C62.1649 76.8385 62.7902 76.2132 63.6109 76.2132C64.1972 76.2132 64.588 76.4868 64.8225 76.8385L65.2524 76.4867C64.9397 76.0568 64.3926 75.666 63.6109 75.666C62.4775 75.666 61.5786 76.5258 61.5786 77.6983C61.5786 78.9099 62.4775 79.7697 63.65 79.7697C64.3926 79.7697 64.9397 79.418 65.2915 78.9099L64.8616 78.5581C64.6271 78.949 64.1972 79.2225 63.65 79.2225Z" fill="#1F1E4F"/>
<path d="M68.6525 77.4638H66.542V75.7441H65.9949V79.6915H66.542V77.9719H68.6525V79.6915H69.2387V75.7441H68.6525V77.4638Z" fill="#1F1E4F"/>
<path d="M76.469 79.6915H77.0161V75.7441H76.469V79.6915Z" fill="#1F1E4F"/>
<path d="M80.8464 78.7144L78.6187 75.7441H78.1106V79.6915H78.6968V76.7212L80.8855 79.6915H81.3935V75.7441H80.8464V78.7144Z" fill="#1F1E4F"/>
<path fill-rule="evenodd" clip-rule="evenodd" d="M85.8882 77.6983C85.8882 78.8317 85.0284 79.6915 83.895 79.6915H82.488V75.7441H83.895C85.0284 75.7441 85.8882 76.604 85.8882 77.6983ZM85.302 77.6983C85.302 76.8385 84.6376 76.2131 83.8168 76.2131H83.0352V79.1834H83.8168C84.6376 79.1834 85.302 78.5581 85.302 77.6983Z" fill="#1F1E4F"/>
<path d="M89.2103 78.2454C89.2103 78.7926 88.7804 79.2616 88.1941 79.2616C87.6079 79.2616 87.2171 78.7926 87.2171 78.2454V75.7441H86.6699V78.2845C86.6699 79.1053 87.3343 79.7697 88.1941 79.7697C89.093 79.7697 89.7575 79.1053 89.7575 78.2845V75.7441H89.2103V78.2454Z" fill="#1F1E4F"/>
<path d="M92.0633 77.4638C91.5162 77.2293 91.1253 77.1121 91.1253 76.7212C91.1253 76.4086 91.3989 76.1741 91.8679 76.1741C92.1415 76.1741 92.4542 76.2913 92.6887 76.6431L93.1186 76.3304C92.845 75.8614 92.2978 75.666 91.8679 75.666C91.1254 75.666 90.5782 76.135 90.5782 76.7212C90.5782 77.4638 91.1644 77.6983 91.7116 77.9328C92.2587 78.1673 92.6105 78.2846 92.6105 78.7145C92.6105 78.988 92.2978 79.2616 91.8288 79.2616C91.438 79.2616 91.1253 79.0662 90.9299 78.6754L90.4609 78.988C90.7345 79.4961 91.2426 79.7697 91.8288 79.7697C92.6887 79.7697 93.1577 79.2616 93.1577 78.6754C93.1577 78.011 92.6887 77.7765 92.0633 77.4638Z" fill="#1F1E4F"/>
<path d="M93.4702 76.2131H94.6818V79.6915H95.2289V76.2131H96.4405V75.7441H93.4702V76.2131Z" fill="#1F1E4F"/>
<path fill-rule="evenodd" clip-rule="evenodd" d="M99.098 78.0891L99.9187 79.6915H99.2543L98.5117 78.1282H97.6519V79.6915H97.0657V75.7441H98.7072C99.3716 75.7441 99.9187 76.2131 99.9187 76.9557C99.9187 77.5029 99.6061 77.8937 99.098 78.0891ZM98.629 77.6592C99.0198 77.6592 99.3715 77.3856 99.3715 76.9166C99.3715 76.4867 99.0198 76.2131 98.629 76.2131H97.6519V77.6592H98.629Z" fill="#1F1E4F"/>
<path d="M23.9028 57.2971C23.9028 57.4795 23.9419 57.6489 24.0201 57.8052V56.7891C23.9419 56.9454 23.9028 57.1148 23.9028 57.2971Z" fill="#EE7823"/>
<path fill-rule="evenodd" clip-rule="evenodd" d="M37.5037 46.3541V46.4322C37.4255 46.8622 37.0738 47.2139 36.683 47.2921V48.8163H24.0202V56.7892C23.942 56.9455 23.9029 57.1149 23.9029 57.2972C23.9029 57.4796 23.942 57.649 24.0202 57.8053V61.9872H20.9717V47.4875H13.6633V47.5266H4.86965C4.47883 47.5266 4.16617 47.6438 3.93167 47.8783C3.69718 48.1389 3.57993 48.4515 3.57993 48.8163V50.4187C3.57993 50.7835 3.69718 51.0831 3.93167 51.3176C4.16617 51.5521 4.47883 51.7084 4.86965 51.7084H13.8978C14.4449 51.7084 14.953 51.7866 15.4611 52.0211C15.9301 52.2165 16.36 52.4901 16.7508 52.8809C17.1025 53.2326 17.3761 53.6626 17.6106 54.1706C17.806 54.6396 17.9233 55.1477 17.9233 55.7339V58.0398C17.9233 58.5479 17.806 59.095 17.6106 59.6031C17.3761 60.0721 17.0895 60.489 16.7508 60.8538C16.36 61.2055 15.9301 61.5182 15.4611 61.7136C15.1745 61.8439 14.8879 61.9351 14.6013 61.9872H0.961384V58.9778H13.5851C13.9238 58.9778 14.2104 58.8606 14.4449 58.6261C14.7055 58.3655 14.8357 58.0659 14.8357 57.7271V56.0466C14.8357 55.6818 14.7055 55.3692 14.4449 55.1086C14.2104 54.8741 13.9238 54.7569 13.5851 54.7569H4.51791C3.97075 54.7569 3.46268 54.6396 2.9546 54.4442C2.48561 54.2488 2.05571 53.9361 1.66488 53.5844C1.32616 53.2196 1.03955 52.7897 0.805055 52.2947C0.700835 52.008 0.622667 51.7214 0.570557 51.4348V47.8001C0.622667 47.4875 0.700835 47.1879 0.805055 46.9012C1.03955 46.4323 1.31314 46.0023 1.66488 45.6506C2.05571 45.2858 2.48561 44.9992 2.9546 44.7908C3.44965 44.5823 3.97075 44.4781 4.51791 44.4781H15.422H23.1995H27.3422V44.1264C27.0686 44.0873 26.8341 43.931 26.7169 43.6965C26.6908 43.6965 26.6778 43.6834 26.6778 43.6574C26.5736 43.501 26.5085 43.3187 26.4824 43.1102C26.4824 42.524 26.9905 42.0159 27.5767 42.0159C28.1629 42.0159 28.6319 42.524 28.6319 43.1102C28.6319 43.3838 28.5538 43.6183 28.3584 43.8137C28.2281 43.944 28.0718 44.0482 27.8894 44.1264V45.0644H19.7211V45.5724H30.6252V45.1816L29.8435 44.7126L29.7263 44.6344V43.6183C29.3354 43.5011 29.0228 43.1102 29.0228 42.6803V42.6412C29.0228 42.3286 29.1791 42.055 29.3745 41.8596C29.5699 41.7423 29.8044 41.6251 30.0389 41.6251C30.3125 41.6251 30.5079 41.7423 30.7033 41.8596C30.8987 42.055 31.016 42.2504 31.0551 42.524C31.0551 42.5761 31.0551 42.6152 31.0551 42.6412C31.0551 43.1493 30.7033 43.5792 30.2343 43.6574V44.3218L30.5079 44.4781L30.8987 44.7126L31.1723 44.8689V46.2759H17.4543V46.8622H33.869L32.9701 46.1977H32.931L32.8529 46.1196L32.8138 46.0805H32.7747V45.0644C32.7226 45.0383 32.6705 45.0253 32.6184 45.0253C32.5142 44.9732 32.4099 44.908 32.3057 44.8299C32.1103 44.6344 31.9931 44.3609 31.9931 44.0482C31.9931 43.462 32.462 42.993 33.0483 42.993C33.6345 42.993 34.1426 43.462 34.1426 44.0482C34.1426 44.1785 34.1165 44.2957 34.0644 44.4C33.9472 44.7126 33.6736 44.9862 33.3219 45.0644V45.7678V45.8069L34.4162 46.5886V44.7517L35.3542 44.2045V43.5792C35.0415 43.462 34.7679 43.2275 34.6507 42.9539C34.5986 42.8236 34.5725 42.6933 34.5725 42.5631C34.5725 42.2895 34.6507 42.055 34.807 41.8596C35.0024 41.6251 35.3151 41.4688 35.6668 41.4688C35.9795 41.4688 36.2922 41.6251 36.4876 41.8596C36.6439 42.055 36.7221 42.2895 36.7221 42.5631C36.7221 43.0711 36.3703 43.501 35.8622 43.5792V44.5172L35.6277 44.6735L35.2369 44.908L34.9633 45.0644V47.4875H22.2224V48.1128H36.1358V47.2921C36.0577 47.266 35.9795 47.24 35.9013 47.2139C35.7711 47.1618 35.6538 47.0706 35.5496 46.9403C35.4193 46.784 35.3542 46.5886 35.3542 46.3541C35.3542 45.7678 35.8622 45.2989 36.4485 45.2989C37.0347 45.2989 37.5037 45.7678 37.5037 46.3541ZM35.6277 43.1493H35.6668C35.9795 43.1493 36.2531 42.8757 36.2531 42.5631C36.2531 42.2113 35.9795 41.9768 35.6668 41.9768C35.6147 41.9768 35.5626 41.9768 35.5105 41.9768C35.4844 41.9768 35.4584 41.9899 35.4323 42.0159C35.3802 42.0159 35.3411 42.0289 35.3151 42.055C35.1197 42.1722 35.0415 42.3286 35.0415 42.5631C35.0415 42.8757 35.276 43.1493 35.6277 43.1493ZM33.0483 44.6344C33.4 44.6344 33.6345 44.3999 33.6345 44.0482C33.6345 43.8528 33.5173 43.6574 33.361 43.5792C33.2567 43.5271 33.1525 43.501 33.0483 43.501C32.8529 43.501 32.6965 43.5792 32.5793 43.7355C32.5793 43.7355 32.5793 43.7486 32.5793 43.7746C32.5011 43.8528 32.462 43.944 32.462 44.0482C32.462 44.3999 32.7356 44.6344 33.0483 44.6344ZM30.0389 43.3447C30.1171 43.3447 30.1822 43.3317 30.2343 43.3056C30.3125 43.2796 30.3776 43.2405 30.4298 43.1884C30.6252 43.0711 30.7033 42.8757 30.7033 42.6412C30.7033 42.511 30.6773 42.3937 30.6252 42.2895C30.5079 42.0941 30.2734 41.9768 30.0389 41.9768C29.8044 41.9768 29.5699 42.0941 29.4527 42.3286C29.4006 42.4067 29.3745 42.511 29.3745 42.6412C29.3745 43.0321 29.6872 43.3447 30.0389 43.3447ZM27.5767 43.6965C27.8894 43.6965 28.1629 43.4229 28.1629 43.1102V43.0711C28.1629 42.7194 27.8894 42.4458 27.5767 42.4458C27.264 42.4458 26.9905 42.7194 26.9905 43.0711V43.1102C26.9905 43.4229 27.264 43.6965 27.5767 43.6965ZM37.0347 46.3541C37.0347 46.1587 36.9175 46.0023 36.8002 45.9242C36.683 45.8069 36.5657 45.7678 36.4485 45.7678C36.214 45.7678 35.9795 45.9242 35.9013 46.1196C35.9013 46.1456 35.9013 46.1587 35.9013 46.1587C35.8753 46.2108 35.8622 46.2759 35.8622 46.3541C35.8622 46.6667 36.0967 46.9403 36.4485 46.9403C36.7611 46.9403 37.0347 46.6667 37.0347 46.3541Z" fill="#EE7823"/>
</svg>
