<svg width="103" height="38" viewBox="0 0 103 38" fill="none" xmlns="http://www.w3.org/2000/svg">
<path d="M92.5394 20.1228L88.1389 15.3805H81.6876V12.7316H88.8224C89.9333 12.7316 90.8305 12.4753 91.3431 11.8771C91.8558 11.279 92.1976 10.3818 92.1976 9.271C92.1976 8.16018 91.8558 7.3057 91.3431 6.79302C90.745 6.19489 89.9333 5.93855 88.8224 5.93855H79.466V20.1228H76.5181V2.90517H88.8224C89.8478 2.90517 90.745 3.07606 91.5141 3.3324C92.2831 3.67419 92.9666 4.10143 93.4793 4.61411C93.992 5.16952 94.4193 5.8531 94.6756 6.62213C94.932 7.39115 95.1028 8.24563 95.1028 9.18555C95.1028 10.6809 94.761 11.8771 94.1629 12.8171C93.5648 13.8424 92.7103 14.526 91.5995 14.9532L96.769 20.1228H92.5394Z" fill="#29A4DD"/>
<path d="M59.0442 20.1228V2.90517H74.4674V5.93855H62.0348V17.1321H74.4674V20.1228H59.0442Z" fill="#29A4DD"/>
<path d="M64.2991 12.6462V10.1255H73.7837V12.6462H64.2991Z" fill="#29A4DD"/>
<path d="M99.5461 2.90517V20.1228H102.537V2.90517H99.5461Z" fill="#29A4DD"/>
<path d="M56.1815 6.49396C55.8966 5.75342 55.4837 5.11256 54.9425 4.5714C54.4014 4.05871 53.7462 3.64571 52.9772 3.3324C52.6639 3.21847 52.3221 3.13304 51.9519 3.07607C51.9234 3.04759 51.8949 3.03335 51.8664 3.03335C51.8094 3.03335 51.7667 3.03335 51.7382 3.03335C51.7098 3.03335 51.667 3.0191 51.6101 2.99062C51.2113 2.93365 50.7841 2.90517 50.3283 2.90517H38.1948V20.1228H41.1855V5.93855H50.3283C50.8125 5.93855 51.2398 5.99551 51.6101 6.10944C51.667 6.10944 51.7098 6.12368 51.7382 6.15216C51.7667 6.15216 51.8094 6.16641 51.8664 6.19489C51.8949 6.19489 51.9234 6.20914 51.9519 6.23762C52.2652 6.38003 52.55 6.56516 52.8063 6.79302C53.376 7.39115 53.6608 8.18866 53.6608 9.18555C53.6608 10.1539 53.376 10.9372 52.8063 11.5353C52.55 11.7632 52.2652 11.9483 51.9519 12.0907C51.9234 12.1192 51.8949 12.1335 51.8664 12.1335C51.8094 12.162 51.7667 12.1904 51.7382 12.2189C51.7098 12.2189 51.667 12.2189 51.6101 12.2189C51.2398 12.3613 50.8125 12.4325 50.3283 12.4325H43.4071V15.3377H50.3283C50.7841 15.3377 51.2113 15.3093 51.6101 15.2523C51.667 15.2523 51.7098 15.2381 51.7382 15.2096C51.7667 15.2096 51.8094 15.2096 51.8664 15.2096C51.8949 15.2096 51.9234 15.1953 51.9519 15.1669C52.3221 15.1099 52.6639 15.0102 52.9772 14.8678C53.7462 14.583 54.4014 14.1557 54.9425 13.5861C55.4837 13.0449 55.8966 12.3898 56.1815 11.6208C56.4663 10.8518 56.6087 9.9973 56.6087 9.05738C56.6087 8.11746 56.4663 7.26299 56.1815 6.49396Z" fill="#EE7823"/>
<path d="M1.6662 28.9666C1.15352 28.753 0.769017 28.6248 0.769017 28.2403C0.769017 27.8985 1.02535 27.6849 1.45258 27.6849C1.75165 27.6849 2.05073 27.8131 2.26434 28.1548L2.69158 27.8558C2.43524 27.3858 1.92253 27.1722 1.4953 27.1722C0.726272 27.1722 0.213589 27.6422 0.213589 28.2403C0.213589 28.9666 0.811761 29.1802 1.32444 29.4366C1.83713 29.6502 2.22163 29.7784 2.22163 30.1629C2.22163 30.4192 1.92254 30.7183 1.45258 30.7183C1.06807 30.7183 0.769017 30.5474 0.555399 30.1629L0.0854492 30.4619C0.384515 30.9746 0.854454 31.231 1.45258 31.231C2.30706 31.231 2.77701 30.7183 2.77701 30.1629C2.77701 29.4793 2.30706 29.2657 1.6662 28.9666Z" fill="#1F1E4F"/>
<path d="M7.17764 30.3765L6.7504 30.0347C6.49406 30.4192 6.10953 30.6755 5.55412 30.6755C4.69965 30.6755 4.05879 30.0347 4.05879 29.2229C4.05879 28.3685 4.69966 27.7276 5.51141 27.7276C6.06681 27.7276 6.45135 27.984 6.70769 28.3685L7.13493 27.984C6.83586 27.5567 6.28043 27.1722 5.51141 27.1722C4.40059 27.1722 3.50342 28.0694 3.50342 29.2229C3.50342 30.3765 4.40058 31.231 5.55412 31.231C6.2377 31.231 6.83585 30.8892 7.17764 30.3765Z" fill="#1F1E4F"/>
<path d="M8.63014 31.1882V27.2576H8.07471V31.1882H8.63014Z" fill="#1F1E4F"/>
<path d="M12.3898 27.7703V27.2576H9.95459V31.1882H12.4326V30.6755H10.4673V29.4365H12.0481V28.9239H10.4673V27.7703H12.3898Z" fill="#1F1E4F"/>
<path d="M16.6623 27.2576H16.1069V30.2056L13.928 27.2576H13.458V31.1882H14.0134V28.2403L16.1496 31.1882H16.6623V27.2576Z" fill="#1F1E4F"/>
<path d="M21.3617 30.3765L20.9345 30.0347C20.6781 30.4192 20.2937 30.6755 19.6955 30.6755C18.8838 30.6755 18.2429 30.0347 18.2429 29.2229C18.2429 28.3685 18.8838 27.7276 19.6955 27.7276C20.2509 27.7276 20.6354 27.984 20.8918 28.3685L21.319 27.984C21.0199 27.5567 20.4646 27.1722 19.6955 27.1722C18.5847 27.1722 17.6875 28.0694 17.6875 29.2229C17.6875 30.3765 18.5847 31.231 19.6955 31.231C20.4646 31.231 20.9772 30.8892 21.3617 30.3765Z" fill="#1F1E4F"/>
<path d="M24.6943 27.7703V27.2576H22.259V31.1882H24.737V30.6755H22.8144V29.4365H24.3524V28.9239H22.8144V27.7703H24.6943Z" fill="#1F1E4F"/>
<path fill-rule="evenodd" clip-rule="evenodd" d="M30.5903 31.1455H29.9067L29.6076 30.8464C29.3086 31.0601 28.9241 31.2309 28.4541 31.2309C27.7278 31.2309 27.0869 30.8037 27.0869 30.1629C27.0869 29.6929 27.386 29.3511 27.9414 29.052C27.6423 28.753 27.4714 28.4966 27.4714 28.1121C27.4714 27.7276 27.7705 27.3004 28.2832 27.2149C28.3686 27.2149 28.4398 27.2149 28.4968 27.2149C28.5823 27.2149 28.6535 27.2149 28.7104 27.2149C29.2231 27.3004 29.5649 27.7276 29.5649 28.1121C29.5649 28.5393 29.3086 28.7957 28.7104 29.1375L29.5649 30.0774C29.7358 29.7783 29.8212 29.4366 29.7785 29.052H30.2912C30.3339 29.5647 30.2058 30.0774 29.9494 30.4619L30.5903 31.1455ZM27.9841 28.1121C27.9841 28.3685 28.1123 28.4966 28.3686 28.753C28.7959 28.4966 29.0095 28.3257 29.0095 28.1121C29.0095 27.8558 28.7959 27.6422 28.4968 27.6422C28.1977 27.6422 27.9841 27.8558 27.9841 28.1121ZM29.2231 30.4619L28.2405 29.3938C27.856 29.6074 27.6423 29.8211 27.6423 30.1201C27.6423 30.5046 28.0696 30.7183 28.4541 30.7183C28.7959 30.7183 29.0095 30.5901 29.2231 30.4619Z" fill="#1F1E4F"/>
<path d="M35.2042 27.2576H32.2991V27.7703H33.4526V31.1882H34.008V27.7703H35.2042V27.2576Z" fill="#1F1E4F"/>
<path d="M36.6143 29.4365H38.195V28.9239H36.6143V27.7703H38.4941V27.2576H36.1016V31.1882H38.5796V30.6755H36.6143V29.4365Z" fill="#1F1E4F"/>
<path d="M41.2282 30.6755C40.4165 30.6755 39.7756 30.0347 39.7756 29.2229C39.7756 28.3685 40.3737 27.7276 41.1855 27.7276C41.7836 27.7276 42.1681 27.984 42.4245 28.3685L42.809 27.984C42.5099 27.5567 41.9545 27.1722 41.1855 27.1722C40.1174 27.1722 39.2202 28.0694 39.2202 29.2229C39.2202 30.3765 40.1174 31.231 41.2282 31.231C41.9545 31.231 42.5099 30.8892 42.8517 30.3765L42.4672 30.0347C42.1681 30.4192 41.7836 30.6755 41.2282 30.6755Z" fill="#1F1E4F"/>
<path d="M43.749 27.2576V31.1882H44.3045V29.4365H46.3979V31.1882H46.9533V27.2576H46.3979V28.9666H44.3045V27.2576H43.749Z" fill="#1F1E4F"/>
<path d="M50.9692 31.1882H51.4819V27.2576H50.9265V30.2056L48.7476 27.2576H48.2776V31.1882H48.833V28.2403L50.9692 31.1882Z" fill="#1F1E4F"/>
<path fill-rule="evenodd" clip-rule="evenodd" d="M56.5234 29.2229C56.5234 30.3765 55.6689 31.2309 54.5154 31.2309C53.4046 31.2309 52.5073 30.3765 52.5073 29.2229C52.5073 28.1548 53.2336 27.3431 54.259 27.2149C54.3444 27.2149 54.4299 27.2149 54.5154 27.2149C54.6008 27.2149 54.6863 27.2149 54.7717 27.2149C55.7971 27.3431 56.5234 28.1548 56.5234 29.2229ZM55.9679 29.2229C55.9679 28.3685 55.3271 27.7276 54.5154 27.7276C53.7036 27.7276 53.0628 28.3685 53.0628 29.2229C53.0628 30.0774 53.7036 30.6755 54.5154 30.6755C55.3271 30.6755 55.9679 30.0774 55.9679 29.2229Z" fill="#1F1E4F"/>
<path d="M57.5916 27.2576V31.1882H59.8559V30.6755H58.147V27.2576H57.5916Z" fill="#1F1E4F"/>
<path fill-rule="evenodd" clip-rule="evenodd" d="M64.2563 29.2229C64.2563 30.3765 63.3591 31.2309 62.2483 31.2309C61.0947 31.2309 60.1975 30.3765 60.1975 29.2229C60.1975 28.1548 60.9666 27.3431 61.9919 27.2149C62.0774 27.2149 62.1628 27.2149 62.2483 27.2149C62.3337 27.2149 62.4191 27.2149 62.5046 27.2149C63.53 27.3431 64.2563 28.1548 64.2563 29.2229ZM63.7009 29.2229C63.7009 28.3685 63.0173 27.7276 62.2483 27.7276C61.4365 27.7276 60.7957 28.3685 60.7957 29.2229C60.7957 30.0774 61.4365 30.6755 62.2483 30.6755C63.0173 30.6755 63.7009 30.0774 63.7009 29.2229Z" fill="#1F1E4F"/>
<path d="M67.2043 29.6074H68.1869V30.1201C67.9306 30.4619 67.5888 30.6755 67.0334 30.6755C66.2216 30.6755 65.5808 30.0347 65.5808 29.2229C65.5808 28.3685 66.2216 27.7276 67.0334 27.7276C67.5888 27.7276 67.9733 27.984 68.2297 28.3685L68.6569 27.984C68.3151 27.5567 67.8024 27.1722 67.0334 27.1722C65.9226 27.1722 65.0254 28.0694 65.0254 29.2229C65.0254 30.3765 65.9226 31.231 67.0334 31.231C67.7597 31.231 68.3578 30.8464 68.7423 30.3338V29.1375H67.2043V29.6074Z" fill="#1F1E4F"/>
<path d="M70.8786 28.8811L69.8532 27.2576H69.1697L70.5796 29.3938V31.1882H71.135V29.3938L72.5449 27.2576H71.904L70.8786 28.8811Z" fill="#1F1E4F"/>
<path d="M99.6316 35.5887L98.6062 33.9653H97.9653L99.3325 36.1014V37.8531H99.8879V36.1014L101.298 33.9653H100.657L99.6316 35.5887Z" fill="#1F1E4F"/>
<path fill-rule="evenodd" clip-rule="evenodd" d="M77.3725 28.4966C77.3725 29.1375 76.7744 29.7356 76.0908 29.7356H75.2791V31.1455H74.7236V27.2576H76.0908C76.7744 27.2576 77.3725 27.8131 77.3725 28.4966ZM76.7744 28.4966C76.7744 28.0694 76.4326 27.7703 76.0053 27.7703H75.2791V29.2229H76.0053C76.4326 29.2229 76.7744 28.9239 76.7744 28.4966Z" fill="#1F1E4F"/>
<path fill-rule="evenodd" clip-rule="evenodd" d="M81.175 31.1455H80.5769L80.1924 30.0774H78.5261L78.0989 31.1455H77.5435L79.0815 27.2576H79.6369L81.175 31.1455ZM80.0214 29.5647L79.3806 27.8558L78.697 29.5647H80.0214Z" fill="#1F1E4F"/>
<path fill-rule="evenodd" clip-rule="evenodd" d="M83.9091 29.5647L84.7209 31.1455H84.08L83.3537 29.6074H82.4993V31.1455H81.9438V27.2576H83.5246C84.2082 27.2576 84.7636 27.7276 84.7636 28.4539C84.7636 29.0093 84.4218 29.3938 83.9091 29.5647ZM83.4819 29.1375C83.8664 29.1375 84.1655 28.8811 84.1655 28.4112C84.1655 28.0267 83.8664 27.7703 83.4819 27.7703H82.4993V29.1375H83.4819Z" fill="#1F1E4F"/>
<path d="M85.7891 27.2576V31.1882H86.3445V29.992L86.9853 29.2657L88.2671 31.1882H88.9079L87.3271 28.8811L88.737 27.2576H88.0534L86.3445 29.2229V27.2576H85.7891Z" fill="#1F1E4F"/>
<path d="M92.6677 29.4793H94.1203V29.0093H92.6677V27.7703H94.3766V27.2576H92.1123V31.1882H92.6677V29.4793Z" fill="#1F1E4F"/>
<path fill-rule="evenodd" clip-rule="evenodd" d="M99.0761 29.2229C99.0761 30.3765 98.1789 31.2309 97.0254 31.2309C95.9146 31.2309 95.0173 30.3765 95.0173 29.2229C95.0173 28.1548 95.7863 27.3431 96.769 27.2149C96.8544 27.2149 96.9399 27.2149 97.0254 27.2149C97.1393 27.2149 97.239 27.2149 97.3244 27.2149C98.3071 27.3431 99.0761 28.1548 99.0761 29.2229ZM98.4779 29.2229C98.4779 28.3685 97.8371 27.7276 97.0254 27.7276C96.2564 27.7276 95.5728 28.3685 95.5728 29.2229C95.5728 30.0774 96.2564 30.6755 97.0254 30.6755C97.8371 30.6755 98.4779 30.0774 98.4779 29.2229Z" fill="#1F1E4F"/>
<path fill-rule="evenodd" clip-rule="evenodd" d="M102.067 29.5647L102.879 31.1455H102.238L101.469 29.6074H100.657V31.1455H100.102V27.2576H101.682C102.366 27.2576 102.921 27.7276 102.921 28.4539C102.921 29.0093 102.537 29.3938 102.067 29.5647ZM101.597 29.1375C101.981 29.1375 102.323 28.8811 102.323 28.4112C102.323 28.0267 101.981 27.7703 101.597 27.7703H100.657V29.1375H101.597Z" fill="#1F1E4F"/>
<path d="M0.512715 35.9733H2.09347V35.4606H0.512715V34.2643H2.43528V33.7516H0V37.6822H2.47799V37.1695H0.512715V35.9733Z" fill="#1F1E4F"/>
<path d="M3.80245 33.7516H3.24707V37.6822H5.5541V37.1695H3.80245V33.7516Z" fill="#1F1E4F"/>
<path d="M6.75025 35.9733H8.28829V35.4606H6.75025V34.2643H8.6301V33.7516H6.19482V37.6822H8.67282V37.1695H6.75025V35.9733Z" fill="#1F1E4F"/>
<path d="M11.1081 37.2123C10.2963 37.2123 9.65553 36.5714 9.65553 35.7169C9.65553 34.8625 10.2536 34.2216 11.0654 34.2216C11.6635 34.2216 12.048 34.5207 12.3044 34.8625L12.6889 34.5207C12.3898 34.0934 11.8771 33.7089 11.0654 33.7089C9.99728 33.7089 9.1001 34.5634 9.1001 35.7169C9.1001 36.8705 9.99727 37.7677 11.1081 37.7677C11.8344 37.7677 12.3898 37.3831 12.7316 36.9132L12.3471 36.5714C12.048 36.9559 11.6635 37.2123 11.1081 37.2123Z" fill="#1F1E4F"/>
<path d="M12.988 34.2643H14.1416V37.6822H14.697V34.2643H15.8933V33.7516H12.988V34.2643Z" fill="#1F1E4F"/>
<path fill-rule="evenodd" clip-rule="evenodd" d="M18.4995 36.0587L19.3112 37.6822H18.6704L17.9013 36.1442H17.0896V37.6822H16.5342V33.7516H18.1149C18.7985 33.7516 19.3539 34.2643 19.3539 34.9479C19.3539 35.5033 18.9694 35.8878 18.4995 36.0587ZM18.0722 35.6742C18.414 35.6742 18.7558 35.3751 18.7558 34.9479C18.7558 34.5207 18.414 34.2643 18.0722 34.2643H17.0896V35.6742H18.0722Z" fill="#1F1E4F"/>
<path fill-rule="evenodd" clip-rule="evenodd" d="M23.8825 35.7169C23.8825 36.8705 23.028 37.7677 21.8745 37.7677C20.7637 37.7677 19.8665 36.8705 19.8665 35.7169C19.8665 34.5634 20.7637 33.7089 21.8745 33.7089C23.028 33.7089 23.8825 34.5634 23.8825 35.7169ZM23.3271 35.7169C23.3271 34.8625 22.6862 34.2216 21.8745 34.2216C21.0627 34.2216 20.4219 34.8625 20.4219 35.7169C20.4219 36.5714 21.0627 37.2123 21.8745 37.2123C22.6862 37.2123 23.3271 36.5714 23.3271 35.7169Z" fill="#1F1E4F"/>
<path d="M27.3432 36.6996L25.207 33.7516H24.6943V37.6822H25.2498V34.7343L27.4287 37.6822H27.8986V33.7516H27.3432V36.6996Z" fill="#1F1E4F"/>
<path d="M28.9666 37.6822H29.522V33.7516H28.9666V37.6822Z" fill="#1F1E4F"/>
<path d="M32.3418 37.2123C31.53 37.2123 30.8892 36.5714 30.8892 35.7169C30.8892 34.8625 31.53 34.2216 32.3418 34.2216C32.8972 34.2216 33.2817 34.5207 33.538 34.8625L33.9652 34.5207C33.6662 34.0934 33.1108 33.7089 32.3418 33.7089C31.231 33.7089 30.3337 34.5634 30.3337 35.7169C30.3337 36.8705 31.231 37.7677 32.3418 37.7677C33.0681 37.7677 33.6662 37.3831 33.9652 36.9132L33.5808 36.5714C33.3244 36.9559 32.9399 37.2123 32.3418 37.2123Z" fill="#1F1E4F"/>
<path d="M35.8879 35.5033C35.3752 35.247 34.9907 35.1188 34.9907 34.7343C34.9907 34.4352 35.2898 34.2216 35.717 34.2216C36.0161 34.2216 36.3151 34.3498 36.5287 34.6916L36.956 34.3925C36.6569 33.8798 36.1443 33.7089 35.717 33.7089C34.9907 33.7089 34.4353 34.1789 34.4353 34.7343C34.4353 35.5033 35.0334 35.6742 35.5888 35.9305C36.1015 36.1869 36.4433 36.2723 36.4433 36.6996C36.4433 36.9559 36.1443 37.2123 35.717 37.2123C35.3325 37.2123 34.9907 37.0414 34.8198 36.6996L34.3499 36.9986C34.6062 37.4686 35.1189 37.7249 35.6743 37.7249C36.5287 37.7249 36.9987 37.2123 36.9987 36.6568C36.9987 36.016 36.5287 35.7597 35.8879 35.5033Z" fill="#1F1E4F"/>
<path fill-rule="evenodd" clip-rule="evenodd" d="M72.6303 37.8531H71.9467L71.6476 37.5113C71.3059 37.7677 70.9213 37.9386 70.4941 37.9386C69.7678 37.9386 69.0842 37.5113 69.0842 36.8277C69.0842 36.3578 69.426 36.0587 69.9387 35.7169C69.6396 35.4179 69.4688 35.1615 69.4688 34.8197C69.4688 34.3498 69.896 33.8798 70.5368 33.8798C71.1777 33.8798 71.5622 34.3498 71.5622 34.8197C71.5622 35.2042 71.3058 35.4606 70.7077 35.8024L71.6049 36.7423C71.7758 36.4432 71.8185 36.1014 71.7758 35.7597H72.3312C72.3739 36.2723 72.2457 36.7423 71.9894 37.1695L72.6303 37.8531ZM69.9814 34.8197C69.9814 35.0761 70.1523 35.247 70.3659 35.4606C70.7932 35.2042 71.0495 35.0333 71.0495 34.8197C71.0495 34.5634 70.8359 34.3498 70.5368 34.3498C70.1951 34.3498 69.9814 34.5634 69.9814 34.8197ZM71.2631 37.1268L70.2805 36.1014C69.8959 36.3151 69.6396 36.5287 69.6396 36.8277C69.6396 37.2123 70.0668 37.3831 70.4941 37.3831C70.7931 37.3831 71.0495 37.2977 71.2631 37.1268Z" fill="#1F1E4F"/>
<path fill-rule="evenodd" clip-rule="evenodd" d="M41.5273 36.0587L42.339 37.6822H41.6982L40.9291 36.1442H40.1174V37.6822H39.562V33.7516H41.1428C41.8263 33.7516 42.339 34.2643 42.339 34.9479C42.339 35.5033 41.9972 35.8878 41.5273 36.0587ZM41.0573 35.6742C41.4419 35.6742 41.7836 35.3751 41.7836 34.9479C41.7836 34.5207 41.4419 34.2643 41.0573 34.2643H40.1174V35.6742H41.0573Z" fill="#1F1E4F"/>
<path d="M43.749 35.9733H45.287V35.4606H43.749V34.2643H45.6288V33.7516H43.1936V37.6822H45.6715V37.1695H43.749V35.9733Z" fill="#1F1E4F"/>
<path d="M47.6797 35.5033C47.167 35.247 46.7825 35.1188 46.7825 34.7343C46.7825 34.4352 47.0816 34.2216 47.5088 34.2216C47.7651 34.2216 48.1069 34.3498 48.3205 34.6916L48.7478 34.3925C48.4487 33.8798 47.936 33.7089 47.5088 33.7089C46.7825 33.7089 46.2271 34.1789 46.2271 34.7343C46.2271 35.5033 46.8252 35.6742 47.3806 35.9305C47.8933 36.1869 48.2351 36.2723 48.2351 36.6996C48.2351 36.9559 47.936 37.2123 47.5088 37.2123C47.0816 37.2123 46.7825 37.0414 46.5688 36.6996L46.1416 36.9986C46.3979 37.4686 46.9107 37.7249 47.4661 37.7249C48.3205 37.7249 48.7905 37.2123 48.7905 36.6568C48.7905 36.016 48.3205 35.7597 47.6797 35.5033Z" fill="#1F1E4F"/>
<path d="M50.1148 35.9733H51.6955V35.4606H50.1148V34.2643H51.9946V33.7516H49.5593V37.6822H52.08V37.1695H50.1148V35.9733Z" fill="#1F1E4F"/>
<path fill-rule="evenodd" clip-rule="evenodd" d="M55.9679 37.6822H55.4126L54.9853 36.6141H53.3191L52.9346 37.6822H52.3364L53.8745 33.7516H54.4299L55.9679 37.6822ZM54.8144 36.1442L54.1736 34.3925L53.5327 36.1442H54.8144Z" fill="#1F1E4F"/>
<path fill-rule="evenodd" clip-rule="evenodd" d="M58.4887 36.0587L59.3005 37.6822H58.6596L57.9333 36.1442H57.0789V37.6822H56.5234V33.7516H58.1042C58.7878 33.7516 59.3432 34.2643 59.3432 34.9479C59.3432 35.5033 59.0014 35.8878 58.4887 36.0587ZM58.0615 35.6742C58.446 35.6742 58.745 35.3751 58.745 34.9479C58.745 34.5207 58.446 34.2643 58.0615 34.2643H57.0789V35.6742H58.0615Z" fill="#1F1E4F"/>
<path d="M61.8639 37.2123C61.0522 37.2123 60.4113 36.5714 60.4113 35.7169C60.4113 34.8625 61.0522 34.2216 61.8639 34.2216C62.4194 34.2216 62.8039 34.5207 63.0602 34.8625L63.4875 34.5207C63.1884 34.0934 62.633 33.7089 61.8639 33.7089C60.7531 33.7089 59.856 34.5634 59.856 35.7169C59.856 36.8705 60.7531 37.7677 61.8639 37.7677C62.633 37.7677 63.1457 37.3831 63.5302 36.9132L63.1029 36.5714C62.8466 36.9559 62.4621 37.2123 61.8639 37.2123Z" fill="#1F1E4F"/>
<path d="M66.8198 35.4606H64.7263V33.7516H64.2136V37.6822H64.7263V35.9733H66.8198V37.6822H67.3752V33.7516H66.8198V35.4606Z" fill="#1F1E4F"/>
<path d="M74.4673 37.6822H75.0227V33.7516H74.4673V37.6822Z" fill="#1F1E4F"/>
<path d="M78.7824 36.6996L76.6035 33.7516H76.0908V37.6822H76.6462V34.7343L78.8251 37.6822H79.2951V33.7516H78.7824V36.6996Z" fill="#1F1E4F"/>
<path fill-rule="evenodd" clip-rule="evenodd" d="M83.7384 35.7169C83.7384 36.8277 82.884 37.6822 81.7731 37.6822H80.406V33.7516H81.7731C82.884 33.7516 83.7384 34.6488 83.7384 35.7169ZM83.1403 35.7169C83.1403 34.8625 82.4995 34.2643 81.6877 34.2643H80.9187V37.1695H81.6877C82.4995 37.1695 83.1403 36.5714 83.1403 35.7169Z" fill="#1F1E4F"/>
<path d="M86.9853 36.2296C86.9853 36.785 86.558 37.2123 86.0026 37.2123C85.4045 37.2123 85.02 36.785 85.02 36.2296V33.7516H84.4646V36.2723C84.4646 37.0841 85.1054 37.7677 86.0026 37.7677C86.8571 37.7677 87.498 37.0841 87.498 36.2723V33.7516H86.9853V36.2296Z" fill="#1F1E4F"/>
<path d="M89.7624 35.5033C89.2498 35.247 88.8652 35.1188 88.8652 34.7343C88.8652 34.4352 89.1216 34.2216 89.5915 34.2216C89.8479 34.2216 90.1897 34.3498 90.4033 34.6916L90.8305 34.3925C90.5315 33.8798 90.0188 33.7089 89.5915 33.7089C88.8652 33.7089 88.3098 34.1789 88.3098 34.7343C88.3098 35.5033 88.9079 35.6742 89.4633 35.9305C89.976 36.1869 90.3178 36.2723 90.3178 36.6996C90.3178 36.9559 90.0188 37.2123 89.5488 37.2123C89.1643 37.2123 88.8652 37.0414 88.6516 36.6996L88.1816 36.9986C88.4807 37.4686 88.9934 37.7249 89.5488 37.7249C90.4033 37.7249 90.8733 37.2123 90.8733 36.6568C90.8733 36.016 90.4033 35.7597 89.7624 35.5033Z" fill="#1F1E4F"/>
<path d="M91.1724 34.2643H92.3259V37.6822H92.8813V34.2643H94.0776V33.7516H91.1724V34.2643Z" fill="#1F1E4F"/>
<path fill-rule="evenodd" clip-rule="evenodd" d="M96.6835 36.0587L97.4953 37.6822H96.8544L96.0854 36.1442H95.2736V37.6822H94.7183V33.7516H96.299C96.9826 33.7516 97.4953 34.2643 97.4953 34.9479C97.4953 35.5033 97.1535 35.8878 96.6835 36.0587ZM96.2563 35.6742C96.5981 35.6742 96.9399 35.3751 96.9399 34.9479C96.9399 34.5207 96.5981 34.2643 96.2563 34.2643H95.2736V35.6742H96.2563Z" fill="#1F1E4F"/>
<path d="M22.8572 15.4659C22.8572 15.6653 22.8857 15.8362 22.9427 15.9786V14.996C22.8857 15.1384 22.8572 15.295 22.8572 15.4659Z" fill="#EE7823"/>
<path fill-rule="evenodd" clip-rule="evenodd" d="M36.1869 4.78502V4.82773C36.1015 5.25497 35.7597 5.59676 35.3752 5.68221V7.17753H22.9426V14.996C22.8857 15.1384 22.8571 15.295 22.8571 15.4659C22.8571 15.6653 22.8857 15.8362 22.9426 15.9786V20.0801H19.952V5.89583H12.8171H4.18694C3.84515 5.89583 3.50337 6.02401 3.28975 6.28035C3.06189 6.50821 2.93371 6.80726 2.90523 7.17753V8.75831C2.93371 9.1001 3.06189 9.38493 3.28975 9.61279C3.50337 9.86913 3.84515 9.9973 4.18694 9.9973H13.0307C13.5861 9.9973 14.0988 10.0827 14.5688 10.2964C15.0388 10.51 15.466 10.8091 15.8505 11.1508C16.1923 11.4926 16.4486 11.9199 16.6622 12.4325C16.8758 12.9025 16.9613 13.4152 16.9613 13.9279V16.1922C16.9613 16.7476 16.8758 17.2603 16.6622 17.7303C16.4628 18.2145 16.1923 18.6275 15.8505 18.9693C15.466 19.311 15.0388 19.6101 14.5688 19.8237C14.284 19.9377 13.9992 20.0231 13.7143 20.0801H0.384523V17.1321H12.7317C13.0735 17.1321 13.3583 17.0182 13.5861 16.7904C13.8425 16.534 13.9707 16.235 13.9707 15.8932V14.2697C13.9707 13.9279 13.8425 13.6288 13.5861 13.3725C13.3583 13.1161 13.0735 12.988 12.7317 12.988H3.88789C3.33248 12.988 2.81976 12.9025 2.3498 12.6889C1.8656 12.4895 1.43836 12.2047 1.06809 11.8344C0.726302 11.4926 0.45576 11.0796 0.256384 10.5954C0.113971 10.3106 0.0284824 10.0258 0 9.74095V6.15217C0.0284824 5.86735 0.113971 5.59677 0.256384 5.34042C0.45576 4.85622 0.726302 4.42899 1.06809 4.05871C1.43836 3.71693 1.8656 3.4321 2.3498 3.20424C2.834 3.00486 3.34673 2.90517 3.88789 2.90517H14.5688H22.1309H26.2323V2.60611C25.976 2.56339 25.7624 2.3925 25.5915 2.17888C25.5915 2.15039 25.5915 2.13615 25.5915 2.13615C25.4775 1.96526 25.4063 1.78013 25.3778 1.58075C25.3778 0.982618 25.8905 0.512652 26.4459 0.512652C27.0441 0.512652 27.514 0.982618 27.514 1.58075C27.514 1.83709 27.3859 2.09342 27.215 2.26432V2.30704C27.1011 2.42097 26.9586 2.50642 26.7877 2.56339V3.50331H18.7557V3.97326H29.4366V3.58875L28.6676 3.16152L28.5394 3.07608V2.09342C28.1549 1.96525 27.8986 1.58074 27.8558 1.15351C27.8558 0.854441 28.0267 0.555374 28.2404 0.38448C28.4113 0.213585 28.6249 0.128142 28.8812 0.128142C29.0948 0.128142 29.3512 0.213585 29.5221 0.38448C29.693 0.555374 29.8211 0.768992 29.8638 1.02533C29.8638 1.05382 29.8638 1.09654 29.8638 1.15351C29.8638 1.62347 29.522 2.0507 29.0521 2.13615V2.77701L29.3512 2.90517L29.7357 3.16152L29.9493 3.28969V4.65684H16.5341V5.25497H32.6409L31.7437 4.61412H31.701L31.6155 4.52868L31.5728 4.48595H31.5301V3.50331C31.5016 3.47483 31.4588 3.46059 31.4019 3.46059C31.2879 3.40362 31.1883 3.33242 31.1028 3.24697H31.0601C30.8892 3.07607 30.761 2.81973 30.761 2.52066C30.761 1.92253 31.231 1.4953 31.8291 1.4953C32.3845 1.4953 32.8545 1.92253 32.8545 2.52066C32.8545 2.63459 32.8403 2.73428 32.8118 2.81973C32.6836 3.16152 32.4272 3.41787 32.0427 3.50331V4.18688L32.0855 4.22961L33.1536 4.99864V3.20424L34.0508 2.69155V2.0507C33.7517 1.92253 33.4954 1.70891 33.4099 1.40984C33.3529 1.29591 33.3244 1.16775 33.3244 1.02533C33.3244 0.811716 33.4099 0.555374 33.5381 0.38448C33.7517 0.128138 34.0507 -3.05176e-05 34.3498 -3.05176e-05C34.6916 -3.05176e-05 34.9907 0.128138 35.1616 0.38448C35.3325 0.555374 35.4179 0.811716 35.4179 1.02533C35.4179 1.53802 35.0761 1.96525 34.6061 2.0507V2.99062L34.3498 3.11879L33.9653 3.33241L33.6662 3.50331V5.89583H21.191V6.49397H34.8198V5.68221C34.7343 5.65372 34.6631 5.62525 34.6061 5.59677C34.4637 5.5398 34.3498 5.45435 34.2644 5.34042C34.1505 5.16953 34.0935 4.9844 34.0935 4.78502C34.0935 4.18689 34.5634 3.71693 35.1189 3.71693C35.717 3.71693 36.1869 4.18689 36.1869 4.78502ZM34.3071 1.62346H34.3498C34.6916 1.62346 34.948 1.36712 34.948 1.02533C34.948 0.726269 34.6916 0.469932 34.3498 0.469932C34.3213 0.469932 34.2929 0.469932 34.2644 0.469932C34.2359 0.469932 34.2217 0.469932 34.2217 0.469932C34.1932 0.469932 34.1647 0.484169 34.1362 0.512652C34.1077 0.512652 34.0792 0.526896 34.0508 0.555378C33.8799 0.640825 33.7517 0.854439 33.7517 1.02533C33.7517 1.36712 34.008 1.62346 34.3071 1.62346ZM31.8291 3.11879C32.1282 3.11879 32.3845 2.86245 32.3845 2.52066C32.3845 2.30704 32.2991 2.13615 32.1282 2.0507C32.0428 1.99373 31.943 1.96526 31.8291 1.96526C31.6155 1.96526 31.4446 2.05071 31.3592 2.2216C31.3022 2.30705 31.2737 2.40673 31.2737 2.52066C31.2737 2.86245 31.53 3.11879 31.8291 3.11879ZM28.8812 1.79437C28.9382 1.79437 28.9951 1.79437 29.0521 1.79437C29.1375 1.76588 29.2087 1.72315 29.2657 1.66619C29.4366 1.58074 29.5221 1.36712 29.5221 1.15351C29.5221 1.01109 29.4936 0.897163 29.4366 0.811716C29.3084 0.598098 29.0948 0.469932 28.8812 0.469932C28.6249 0.469932 28.4112 0.598098 28.3258 0.811716C28.2403 0.897163 28.1976 1.01109 28.1976 1.15351C28.1976 1.4953 28.4967 1.79437 28.8812 1.79437ZM26.4459 2.13615C26.745 2.13615 27.0441 1.87981 27.0441 1.58075V1.53802C27.0441 1.19623 26.745 0.939888 26.4459 0.939888C26.1469 0.939888 25.8906 1.19623 25.8906 1.53802V1.58075C25.8906 1.87981 26.1469 2.13615 26.4459 2.13615ZM35.717 4.78502C35.717 4.5714 35.6315 4.44323 35.5034 4.31506C35.3752 4.22961 35.247 4.18688 35.1189 4.18688C34.9052 4.18688 34.6916 4.35779 34.6061 4.5714C34.5777 4.62837 34.5634 4.69957 34.5634 4.78502C34.5634 5.08409 34.8198 5.34042 35.1189 5.34042C35.4606 5.34042 35.717 5.08409 35.717 4.78502Z" fill="#EE7823"/>
</svg>
