<svg width="118" height="98" viewBox="0 0 118 98" fill="none" xmlns="http://www.w3.org/2000/svg">
<path fill-rule="evenodd" clip-rule="evenodd" d="M16.5781 52.8479H28.3244C29.7959 52.8481 31.261 53.0448 32.6804 53.4327L33.4661 53.6474L33.8354 52.9215C36.578 47.53 42.1748 43.8311 48.6184 43.8311H69.3816C75.8252 43.8311 81.422 47.53 84.1646 52.9215L84.5337 53.647L85.319 53.4329C86.709 53.0538 88.1684 52.8479 89.6755 52.8479H101.422C110.562 52.8479 118 60.2858 118 69.4261V88.2037C118 93.467 113.716 97.7506 108.453 97.7506H9.54688C4.28361 97.7506 0 93.467 0 88.2037V69.4261C0 60.2858 7.43783 52.8479 16.5781 52.8479ZM32.0805 59.3174C32.0551 59.6816 32.0417 60.0464 32.0402 60.4115V92.7196H9.54688C7.05607 92.7196 5.03125 90.6947 5.03125 88.2039V69.4263C5.03125 63.0585 10.2103 57.8794 16.5781 57.8794H28.3245C29.3699 57.8794 30.3821 58.0214 31.3449 58.2828L32.1376 58.498L32.0805 59.3174ZM37.0715 92.7196H80.9285V60.4094C80.9285 54.0416 75.7495 48.8625 69.3816 48.8625H48.6184C42.2505 48.8625 37.0715 54.0416 37.0715 60.4094V92.7196ZM101.422 57.8792H89.6755C88.6552 57.8794 87.6393 58.015 86.6548 58.2826L85.8624 58.498L85.9195 59.3172C85.9449 59.6813 85.9584 60.0462 85.9598 60.4112L85.9598 60.4132L85.9598 92.7196H108.453C110.944 92.7196 112.969 90.6947 112.969 88.2039V69.4261C112.969 63.0582 107.79 57.8792 101.422 57.8792Z" fill="#1F1E4F"/>
<path fill-rule="evenodd" clip-rule="evenodd" d="M7.83142 34.2696C7.83142 26.2088 14.3908 19.6494 22.4516 19.6494C30.5123 19.6494 37.0717 26.2088 37.0717 34.2696C37.0717 42.3303 30.5121 48.8897 22.4516 48.8897C14.3908 48.8897 7.8312 42.3303 7.83142 34.2696ZM12.8624 34.2696C12.8624 39.5579 17.163 43.8585 22.4513 43.8585C27.7396 43.8585 32.0402 39.5579 32.0402 34.2696C32.0402 28.9813 27.7396 24.6807 22.4513 24.6807C17.163 24.6807 12.8624 28.9813 12.8624 34.2696Z" fill="#1F1E4F"/>
<path fill-rule="evenodd" clip-rule="evenodd" d="M39.1317 20.1173C39.1317 9.16271 48.0454 0.249023 59 0.249023C69.9546 0.249023 78.8683 9.16294 78.8683 20.1173C78.8683 31.0719 69.9546 39.9856 59 39.9856C48.0454 39.9856 39.1317 31.0719 39.1317 20.1173ZM44.163 20.1173C44.163 28.2994 50.8179 34.9543 59 34.9543C67.1821 34.9543 73.837 28.2994 73.837 20.1173C73.837 11.9352 67.1821 5.28027 59 5.28027C50.8179 5.28027 44.163 11.9354 44.163 20.1173Z" fill="#1F1E4F"/>
<path fill-rule="evenodd" clip-rule="evenodd" d="M80.9283 34.2696C80.9283 26.2088 87.4879 19.6494 95.5485 19.6494C103.609 19.6494 110.169 26.2088 110.169 34.2696C110.169 42.3303 103.609 48.8897 95.5485 48.8897C87.4879 48.8897 80.9285 42.3303 80.9283 34.2696ZM85.9595 34.2695C85.9595 39.5579 90.2604 43.8585 95.5485 43.8585C100.837 43.8585 105.137 39.5579 105.137 34.2696C105.137 28.9813 100.837 24.6807 95.5485 24.6807C90.2604 24.6807 85.9598 28.9813 85.9595 34.2695Z" fill="#1F1E4F"/>
</svg>
