<svg width="36" height="40" viewBox="0 0 36 40" fill="none" xmlns="http://www.w3.org/2000/svg">
<path d="M2 12.667C2 6.03966 7.67133 0.666992 14.6667 0.666992L16 1.33366V3.33366H14.6667C9.144 3.33366 4.66667 7.51233 4.66667 12.667V14.0003H2V12.667ZM34 12.667C34 6.03966 28.3287 0.666992 21.3333 0.666992L20 1.33366V3.33366H21.3333C26.856 3.33366 31.3333 7.51233 31.3333 12.667V14.0003H34V12.667Z" fill="#122359"/>
<path d="M4.66675 34V38C4.66675 38.3536 4.80722 38.6928 5.05727 38.9428C5.30732 39.1929 5.64646 39.3333 6.00008 39.3333H10.0001V34H4.66675ZM31.3334 34V38C31.3334 38.3536 31.1929 38.6928 30.9429 38.9428C30.6928 39.1929 30.3537 39.3333 30.0001 39.3333H26.0001V34H31.3334Z" fill="#CED7DD"/>
<path d="M8.66667 36.5273C8.12133 36.6823 7.54746 36.7087 6.9902 36.6044C6.43295 36.5 5.9075 36.2678 5.45519 35.926C5.00288 35.5842 4.63604 35.1421 4.38354 34.6345C4.13103 34.1269 3.99975 33.5676 4 33.0007C4 30.974 5.64 29.334 7.66667 29.334C8.80667 29.334 9.82 29.8473 10.4867 30.6607L8.66667 36.5273ZM25.5133 30.6607C26.18 29.8473 27.1933 29.334 28.3333 29.334C30.36 29.334 32 30.974 32 33.0007C32.0003 33.5676 31.869 34.1269 31.6165 34.6345C31.364 35.1421 30.9971 35.5842 30.5448 35.926C30.0925 36.2678 29.5671 36.5 29.0098 36.6044C28.4525 36.7087 27.8787 36.6823 27.3333 36.5273L25.5133 30.6607Z" fill="#B3C1C9"/>
<path d="M14.6667 25.334H21.3334V30.0007H14.6667V25.334Z" fill="#CED7DD"/>
<path d="M23.3334 8.66699C27.3867 8.66699 30.6667 11.947 30.6667 16.0003L31.3334 17.3337L30.6667 18.667C30.6667 22.7203 27.3867 26.0003 23.3334 26.0003H12.6667C8.61341 26.0003 5.33341 22.7203 5.33341 18.667L4.66675 17.3337L5.33341 16.0003C5.33341 11.947 8.61341 8.66699 12.6667 8.66699H23.3334Z" fill="#E4EAEF"/>
<path d="M23.3333 12.667H12.6667C10.0893 12.667 8 14.7563 8 17.3337C8 19.911 10.0893 22.0003 12.6667 22.0003H23.3333C25.9107 22.0003 28 19.911 28 17.3337C28 14.7563 25.9107 12.667 23.3333 12.667Z" fill="#122359"/>
<path d="M14.0001 29.334H22.0001C24.9434 29.334 27.3334 31.724 27.3334 34.6673V38.0007C27.3334 38.3543 27.1929 38.6934 26.9429 38.9435C26.6928 39.1935 26.3537 39.334 26.0001 39.334H10.0001C9.64646 39.334 9.30732 39.1935 9.05727 38.9435C8.80722 38.6934 8.66675 38.3543 8.66675 38.0007V34.6673C8.66675 31.724 11.0567 29.334 14.0001 29.334Z" fill="#E4EAEF"/>
<path d="M22.08 11.778C22.6473 11.0093 23.3314 9.84132 23.3334 8.67332C23.3339 8.31898 23.1938 7.97892 22.9438 7.7278C22.6938 7.47668 22.3544 7.33504 22 7.33398H13.9994C13.645 7.33504 13.3056 7.47668 13.0556 7.7278C12.8056 7.97892 12.6655 8.31898 12.666 8.67332C12.668 9.84198 13.352 11.01 13.9193 11.778C14.1262 12.0555 14.3954 12.2805 14.7051 12.435C15.0149 12.5895 15.3566 12.669 15.7027 12.6673H20.296C20.998 12.6673 21.6633 12.3427 22.08 11.778Z" fill="#CED7DD"/>
<path d="M12.6666 18.6667C13.403 18.6667 13.9999 18.0697 13.9999 17.3333C13.9999 16.597 13.403 16 12.6666 16C11.9302 16 11.3333 16.597 11.3333 17.3333C11.3333 18.0697 11.9302 18.6667 12.6666 18.6667Z" fill="#71FFE4"/>
<path d="M23.3333 18.6667C24.0697 18.6667 24.6667 18.0697 24.6667 17.3333C24.6667 16.597 24.0697 16 23.3333 16C22.597 16 22 16.597 22 17.3333C22 18.0697 22.597 18.6667 23.3333 18.6667Z" fill="#71FFE4"/>
<path d="M14.6667 0.666992H21.3334V3.33366C21.3334 3.51047 21.2632 3.68004 21.1382 3.80506C21.0131 3.93009 20.8436 4.00033 20.6667 4.00033H15.3334C15.1566 4.00033 14.987 3.93009 14.862 3.80506C14.737 3.68004 14.6667 3.51047 14.6667 3.33366V0.666992Z" fill="#23468E"/>
<path d="M31.3335 26.667H27.3335V25.3337H31.3335C31.5103 25.3337 31.6799 25.2634 31.8049 25.1384C31.9299 25.0134 32.0002 24.8438 32.0002 24.667V20.667H33.3335V24.667C33.3335 25.7697 32.4362 26.667 31.3335 26.667Z" fill="#CED7DD"/>
<path d="M33.9998 22.0003H31.3332C31.1564 22.0003 30.9868 21.9301 30.8618 21.8051C30.7367 21.68 30.6665 21.5105 30.6665 21.3337V13.3337C30.6665 13.1568 30.7367 12.9873 30.8618 12.8623C30.9868 12.7372 31.1564 12.667 31.3332 12.667H33.9998C35.1038 12.667 35.9998 13.563 35.9998 14.667V20.0003C35.9998 21.1043 35.1038 22.0003 33.9998 22.0003Z" fill="#23468E"/>
<path d="M25.9998 24.667H27.9998C28.1766 24.667 28.3462 24.7372 28.4712 24.8623C28.5963 24.9873 28.6665 25.1568 28.6665 25.3337V26.667C28.6665 26.8438 28.5963 27.0134 28.4712 27.1384C28.3462 27.2634 28.1766 27.3337 27.9998 27.3337H25.9998C25.6462 27.3337 25.3071 27.1932 25.057 26.9431C24.807 26.6931 24.6665 26.3539 24.6665 26.0003C24.6665 25.6467 24.807 25.3076 25.057 25.0575C25.3071 24.8075 25.6462 24.667 25.9998 24.667Z" fill="#122359"/>
<path d="M2 12.667H4.66667C4.84348 12.667 5.01305 12.7372 5.13807 12.8623C5.2631 12.9873 5.33333 13.1568 5.33333 13.3337V21.3337C5.33333 21.5105 5.2631 21.68 5.13807 21.8051C5.01305 21.9301 4.84348 22.0003 4.66667 22.0003H2C0.896 22.0003 0 21.1043 0 20.0003V14.667C0 13.563 0.896 12.667 2 12.667Z" fill="#23468E"/>
</svg>
