<svg width="120" height="110" viewBox="0 0 120 110" fill="none" xmlns="http://www.w3.org/2000/svg">
<path d="M82.2905 40.563C72.7802 38.0111 62.0002 43.1536 54.0623 52.8494H50.7255C48.0026 52.8494 43.8335 54.8852 41.2348 57.4844L36.2918 62.4274C36.0347 62.6845 35.8579 63.0109 35.783 63.3667C35.7081 63.7225 35.7383 64.0925 35.8698 64.4315C36.0014 64.7704 36.2287 65.0639 36.524 65.276C36.8194 65.4881 37.17 65.6098 37.5333 65.6261L46.3411 66.0225C46.02 66.8255 45.7186 67.6362 45.4371 68.4539C41.0808 72.0586 39.6122 76.2633 40.6842 81.9895C40.7538 82.361 40.9341 82.7029 41.2014 82.9701C41.4687 83.2374 41.8106 83.4176 42.1821 83.4872C43.3772 83.711 44.505 83.8247 45.5756 83.8247C49.6404 83.8247 52.8694 82.1857 55.7189 78.7404C56.5367 78.459 57.3475 78.1576 58.1505 77.8366L58.552 86.6461C58.5687 87.0092 58.6906 87.3597 58.9028 87.6548C59.115 87.95 59.4084 88.1771 59.7474 88.3085C60.0863 88.4399 60.4562 88.47 60.8119 88.3951C61.1676 88.3201 61.4939 88.1434 61.751 87.8864L66.694 82.9434C69.2892 80.3484 71.3222 76.1793 71.3222 73.4526V70.1175C81.0183 62.1808 86.1635 51.4008 83.6154 41.8889C83.5303 41.571 83.363 41.2812 83.1304 41.0485C82.8978 40.8157 82.6083 40.6483 82.2905 40.563ZM80.238 43.9394C80.7825 46.8527 80.4607 50.0322 79.3392 53.2418L70.9341 44.8366C74.1441 43.7144 77.3243 43.3933 80.238 43.9394ZM55.282 74.9196L49.2572 68.8945C49.6507 67.8105 50.0798 66.7476 50.5409 65.7075L58.4726 73.6343C57.4242 74.0993 56.36 74.528 55.282 74.9196ZM41.9513 62.0711L43.8865 60.1359C45.9105 58.1118 49.1667 56.5992 50.7255 56.5992H51.2895C50.0631 58.4395 48.9584 60.3581 47.9824 62.3425L41.9513 62.0711ZM44.175 79.9971C43.8094 76.664 44.6742 74.2605 47.0651 72.011L52.1651 77.1105C49.9174 79.5004 47.5134 80.3636 44.175 79.9971ZM67.5727 73.4526C67.5727 75.015 66.0628 78.2714 64.0425 80.2917L62.1049 82.2293L61.83 76.1962C63.8141 75.2204 65.7323 74.1159 67.5724 72.8899V73.4526H67.5727ZM62.0257 71.8833L52.2912 62.1548C55.1768 56.8603 58.95 52.3368 63.3115 49.0221C64.6062 48.0377 65.929 47.186 67.2619 46.4674L77.7089 56.9142C76.9901 58.248 76.1377 59.5713 75.1531 60.8669C71.8397 65.2263 67.3179 68.9983 62.0257 71.8833ZM67.9793 56.1926C68.1957 56.4089 68.3674 56.6658 68.4845 56.9485C68.6017 57.2312 68.662 57.5342 68.662 57.8402C68.662 58.1462 68.6017 58.4492 68.4845 58.7319C68.3674 59.0147 68.1957 59.2715 67.9793 59.4879C67.5421 59.922 66.951 60.1656 66.3349 60.1656C65.7188 60.1656 65.1277 59.922 64.6905 59.4879C64.4741 59.2715 64.3024 59.0147 64.1853 58.7319C64.0682 58.4492 64.0079 58.1462 64.0079 57.8402C64.0079 57.5342 64.0682 57.2312 64.1853 56.9485C64.3024 56.6658 64.4741 56.4089 64.6905 56.1926C65.1277 55.7584 65.7188 55.5148 66.3349 55.5148C66.951 55.5148 67.5421 55.7584 67.9793 56.1926ZM112.983 9.39349H101.777V4.9038C101.777 2.45927 99.2252 0.544189 95.9686 0.544189C92.7117 0.544189 90.1605 2.45903 90.1605 4.9038V9.39349H77.793V4.9038C77.793 2.45927 75.2419 0.544189 71.9852 0.544189C68.7286 0.544189 66.177 2.45903 66.177 4.9038V9.39349H53.8162V4.9038C53.8162 2.45927 51.2651 0.544189 48.0084 0.544189C44.7518 0.544189 42.2002 2.45903 42.2002 4.9038V9.39349H29.8395V4.9038C29.8395 2.45927 27.2883 0.544189 24.0314 0.544189C20.7745 0.544189 18.2234 2.45903 18.2234 4.9038V9.39349H7.01063C3.14508 9.39349 0 12.5383 0 16.4039V102.439C0 106.308 3.14508 109.456 7.01063 109.456H112.983C116.852 109.456 120 106.308 120 102.439V16.4039C120 12.5383 116.852 9.39349 112.983 9.39349ZM102.113 78.4432C101.835 78.3655 101.542 78.3534 101.258 78.4077C100.974 78.462 100.706 78.5812 100.476 78.7561C100.245 78.9309 100.058 79.1567 99.9298 79.4157C99.8012 79.6748 99.7342 79.9601 99.7341 80.2493C99.7341 88.3352 93.4528 97.0626 83.3058 97.0626H7.01063C5.21273 97.0626 3.75 95.6001 3.75 93.802V31.2937H116.25V82.3896L102.113 78.4432ZM113.394 85.4857L99.5161 93.7174C98.9081 94.0789 98.2858 94.4158 97.6507 94.7271C97.8123 94.5573 97.9709 94.3848 98.1265 94.2096C100.984 90.994 102.819 86.8929 103.335 82.6776L113.394 85.4857ZM93.9105 4.96896C94.0605 4.74864 94.7906 4.29395 95.9684 4.29395C97.1445 4.29395 97.8752 4.74911 98.0266 4.97036V9.39349H93.9105V4.96896ZM69.927 4.97036C70.0786 4.74911 70.8091 4.29419 71.985 4.29419C73.1632 4.29419 73.893 4.74841 74.0433 4.96896V9.39349H69.9272L69.927 4.97036ZM45.9504 4.96896C46.1004 4.74864 46.8302 4.29395 48.0082 4.29395C49.1862 4.29395 49.9165 4.74864 50.0662 4.96896V9.39349H45.9502L45.9504 4.96896ZM21.9734 4.96896C22.1234 4.74841 22.8534 4.29395 24.0314 4.29395C25.2075 4.29395 25.9383 4.74911 26.0897 4.97036V9.39349H21.9736V4.96872L21.9734 4.96896ZM7.01063 13.1433H18.2234V16.1048C18.2234 18.5493 20.7748 20.4642 24.0314 20.4642C25.0671 20.4642 25.9064 19.6251 25.9064 18.5892C25.9064 17.5533 25.0671 16.7142 24.0314 16.7142C22.8534 16.7142 22.1236 16.2602 21.9736 16.0399V13.143H42.2002V16.1048C42.2002 18.5493 44.7516 20.4642 48.0084 20.4642C49.0439 20.4642 49.8834 19.6251 49.8834 18.5892C49.8834 17.5533 49.0439 16.7142 48.0084 16.7142C46.8305 16.7142 46.1002 16.2602 45.9502 16.0399V13.143H66.1772V16.1048C66.1772 18.5493 68.7281 20.4642 71.985 20.4642C73.0207 20.4642 73.86 19.6251 73.86 18.5892C73.86 17.5533 73.0207 16.7142 71.985 16.7142C70.8091 16.7142 70.0786 16.2595 69.9272 16.0385V13.1435H90.1605V16.105C90.1605 18.5496 92.7117 20.4644 95.9684 20.4644C97.0043 20.4644 97.8434 19.6254 97.8434 18.5894C97.8434 17.5535 97.0043 16.7144 95.9684 16.7144C94.7906 16.7144 94.0605 16.2604 93.9105 16.0401V13.143H112.983C114.784 13.143 116.25 14.6058 116.25 16.4036V27.5435H3.75V16.4036C3.75 14.606 5.2125 13.1433 7.01063 13.1433ZM112.983 105.706H7.01063C5.21273 105.706 3.75 104.24 3.75 102.439V100.007C4.75493 100.537 5.87433 100.814 7.01063 100.813H87.3185C92.4956 100.813 96.9795 99.5829 101.429 96.9429L116.25 88.1519V102.439C116.25 104.24 114.784 105.706 112.983 105.706Z" fill="#1F1E4F"/>
</svg>
